<svg width="19" height="23" viewBox="0 0 19 23" fill="none" xmlns="http://www.w3.org/2000/svg">
<path d="M18.0366 7.36455L9.76093 0.701718C9.42686 0.432701 8.9507 0.432821 8.61663 0.701718L0.340243 7.36455C0.125126 7.5377 0 7.79904 0 8.07525V21.5876C0 22.0915 0.408532 22.5 0.912391 22.5H6.59466C7.09852 22.5 7.50705 22.0915 7.50705 21.5876V17.5163C7.50705 16.5892 8.26128 15.835 9.18836 15.835C10.1154 15.835 10.8697 16.5892 10.8697 17.5163V21.5876C10.8697 22.0915 11.2783 22.5 11.7821 22.5H12.2687H13.2324H17.4644C17.9683 22.5 18.3768 22.0915 18.3768 21.5876V8.07525C18.3768 7.79904 18.2517 7.53776 18.0366 7.36455Z" fill="#F96900"/>
<path d="M18.0366 7.36455L9.76093 0.701718C9.42686 0.432701 8.9507 0.432821 8.61663 0.701718L0.340243 7.36455C0.125126 7.5377 0 7.79904 0 8.07525V21.5876C0 22.0915 0.408532 22.5 0.912391 22.5H6.59466C7.09852 22.5 7.50705 22.0915 7.50705 21.5876V17.5163C7.50705 16.5892 8.26128 15.835 9.18836 15.835C10.1154 15.835 10.8697 16.5892 10.8697 17.5163V21.5876C10.8697 22.0915 11.2783 22.5 11.7821 22.5H12.2687H13.2324H17.4644C17.9683 22.5 18.3768 22.0915 18.3768 21.5876V8.07525C18.3768 7.79904 18.2517 7.53776 18.0366 7.36455Z" fill="#FF4D00"/>
<path d="M18.0366 7.36455L9.76093 0.701718C9.42686 0.432701 8.9507 0.432821 8.61663 0.701718L0.340243 7.36455C0.125126 7.5377 0 7.79904 0 8.07525V21.5876C0 22.0915 0.408532 22.5 0.912391 22.5H6.59466C7.09852 22.5 7.50705 22.0915 7.50705 21.5876V17.5163C7.50705 16.5892 8.26128 15.835 9.18836 15.835C10.1154 15.835 10.8697 16.5892 10.8697 17.5163V21.5876C10.8697 22.0915 11.2783 22.5 11.7821 22.5H12.2687H13.2324H17.4644C17.9683 22.5 18.3768 22.0915 18.3768 21.5876V8.07525C18.3768 7.79904 18.2517 7.53776 18.0366 7.36455Z" fill="#F9560F"/>
</svg>
