<svg width="18" height="19" viewBox="0 0 18 19" fill="none" xmlns="http://www.w3.org/2000/svg">
<path d="M17.1321 9.62256C17.0567 9.46813 17.0567 9.29102 17.1321 9.13662L17.8318 7.70534C18.2213 6.90841 17.9127 5.95856 17.1291 5.54282L15.7219 4.79613C15.57 4.71559 15.4659 4.57226 15.4362 4.40303L15.161 2.83384C15.0077 1.96016 14.1996 1.37306 13.3214 1.4973L11.744 1.72043C11.5738 1.74447 11.4054 1.68973 11.2819 1.57025L10.1369 0.462594C9.49938 -0.15418 8.50062 -0.154216 7.86311 0.462594L6.71808 1.57036C6.59453 1.68987 6.42618 1.7445 6.25596 1.72054L4.67856 1.49741C3.80015 1.3731 2.99227 1.96027 2.83901 2.83395L2.56378 4.40307C2.53407 4.57234 2.42998 4.71563 2.27818 4.7962L0.870898 5.54289C0.0873466 5.95859 -0.221297 6.90852 0.168244 7.70545L0.867857 9.13669C0.943333 9.29112 0.943333 9.46824 0.867857 9.62263L0.168208 11.0539C-0.221333 11.8508 0.0873098 12.8007 0.870862 13.2164L2.27815 13.9631C2.42998 14.0436 2.53407 14.1869 2.56378 14.3562L2.83901 15.9254C2.97853 16.7207 3.66052 17.2785 4.44433 17.2784C4.52153 17.2784 4.59986 17.273 4.67859 17.2619L6.25599 17.0387C6.42611 17.0146 6.59457 17.0694 6.71812 17.1889L7.86311 18.2966C8.18193 18.605 8.59089 18.7592 9 18.7591C9.409 18.7591 9.81821 18.6049 10.1369 18.2966L11.2819 17.1889C11.4055 17.0694 11.5739 17.0149 11.744 17.0387L13.3214 17.2619C14.2 17.3862 15.0077 16.799 15.161 15.9253L15.4363 14.3562C15.466 14.1869 15.5701 14.0437 15.7219 13.9631L17.1291 13.2164C17.9127 12.8007 18.2213 11.8508 17.8318 11.0538L17.1321 9.62256Z" fill="#F96900"/>
<path d="M17.1321 9.62256C17.0567 9.46813 17.0567 9.29102 17.1321 9.13662L17.8318 7.70534C18.2213 6.90841 17.9127 5.95856 17.1291 5.54282L15.7219 4.79613C15.57 4.71559 15.4659 4.57226 15.4362 4.40303L15.161 2.83384C15.0077 1.96016 14.1996 1.37306 13.3214 1.4973L11.744 1.72043C11.5738 1.74447 11.4054 1.68973 11.2819 1.57025L10.1369 0.462594C9.49938 -0.15418 8.50062 -0.154216 7.86311 0.462594L6.71808 1.57036C6.59453 1.68987 6.42618 1.7445 6.25596 1.72054L4.67856 1.49741C3.80015 1.3731 2.99227 1.96027 2.83901 2.83395L2.56378 4.40307C2.53407 4.57234 2.42998 4.71563 2.27818 4.7962L0.870898 5.54289C0.0873466 5.95859 -0.221297 6.90852 0.168244 7.70545L0.867857 9.13669C0.943333 9.29112 0.943333 9.46824 0.867857 9.62263L0.168208 11.0539C-0.221333 11.8508 0.0873098 12.8007 0.870862 13.2164L2.27815 13.9631C2.42998 14.0436 2.53407 14.1869 2.56378 14.3562L2.83901 15.9254C2.97853 16.7207 3.66052 17.2785 4.44433 17.2784C4.52153 17.2784 4.59986 17.273 4.67859 17.2619L6.25599 17.0387C6.42611 17.0146 6.59457 17.0694 6.71812 17.1889L7.86311 18.2966C8.18193 18.605 8.59089 18.7592 9 18.7591C9.409 18.7591 9.81821 18.6049 10.1369 18.2966L11.2819 17.1889C11.4055 17.0694 11.5739 17.0149 11.744 17.0387L13.3214 17.2619C14.2 17.3862 15.0077 16.799 15.161 15.9253L15.4363 14.3562C15.466 14.1869 15.5701 14.0437 15.7219 13.9631L17.1291 13.2164C17.9127 12.8007 18.2213 11.8508 17.8318 11.0538L17.1321 9.62256Z" fill="#FF4D00"/>
<path d="M17.1321 9.62256C17.0567 9.46813 17.0567 9.29102 17.1321 9.13662L17.8318 7.70534C18.2213 6.90841 17.9127 5.95856 17.1291 5.54282L15.7219 4.79613C15.57 4.71559 15.4659 4.57226 15.4362 4.40303L15.161 2.83384C15.0077 1.96016 14.1996 1.37306 13.3214 1.4973L11.744 1.72043C11.5738 1.74447 11.4054 1.68973 11.2819 1.57025L10.1369 0.462594C9.49938 -0.15418 8.50062 -0.154216 7.86311 0.462594L6.71808 1.57036C6.59453 1.68987 6.42618 1.7445 6.25596 1.72054L4.67856 1.49741C3.80015 1.3731 2.99227 1.96027 2.83901 2.83395L2.56378 4.40307C2.53407 4.57234 2.42998 4.71563 2.27818 4.7962L0.870898 5.54289C0.0873466 5.95859 -0.221297 6.90852 0.168244 7.70545L0.867857 9.13669C0.943333 9.29112 0.943333 9.46824 0.867857 9.62263L0.168208 11.0539C-0.221333 11.8508 0.0873098 12.8007 0.870862 13.2164L2.27815 13.9631C2.42998 14.0436 2.53407 14.1869 2.56378 14.3562L2.83901 15.9254C2.97853 16.7207 3.66052 17.2785 4.44433 17.2784C4.52153 17.2784 4.59986 17.273 4.67859 17.2619L6.25599 17.0387C6.42611 17.0146 6.59457 17.0694 6.71812 17.1889L7.86311 18.2966C8.18193 18.605 8.59089 18.7592 9 18.7591C9.409 18.7591 9.81821 18.6049 10.1369 18.2966L11.2819 17.1889C11.4055 17.0694 11.5739 17.0149 11.744 17.0387L13.3214 17.2619C14.2 17.3862 15.0077 16.799 15.161 15.9253L15.4363 14.3562C15.466 14.1869 15.5701 14.0437 15.7219 13.9631L17.1291 13.2164C17.9127 12.8007 18.2213 11.8508 17.8318 11.0538L17.1321 9.62256Z" fill="#F9560F"/>
</svg>
