<svg width="18" height="18" viewBox="0 0 18 18" fill="none" xmlns="http://www.w3.org/2000/svg">
<path d="M17.5148 0.485684C17.202 0.172477 16.7858 0 16.343 0H10.0329C9.5902 0 9.17402 0.172406 8.86099 0.485473L0.485543 8.86092C0.172406 9.17402 0 9.59017 0 10.0327C0 10.4753 0.172477 10.8915 0.485543 11.2043L6.79553 17.5144C7.10849 17.8275 7.52463 18 7.96725 18C8.40983 18 8.82598 17.8276 9.13908 17.5145L17.5145 9.13901C17.8276 8.82598 18 8.4098 18 7.96714V1.65702C18 1.21416 17.8275 0.797977 17.5148 0.485684Z" fill="#F96900"/>
<path d="M17.5148 0.485684C17.202 0.172477 16.7858 0 16.343 0H10.0329C9.5902 0 9.17402 0.172406 8.86099 0.485473L0.485543 8.86092C0.172406 9.17402 0 9.59017 0 10.0327C0 10.4753 0.172477 10.8915 0.485543 11.2043L6.79553 17.5144C7.10849 17.8275 7.52463 18 7.96725 18C8.40983 18 8.82598 17.8276 9.13908 17.5145L17.5145 9.13901C17.8276 8.82598 18 8.4098 18 7.96714V1.65702C18 1.21416 17.8275 0.797977 17.5148 0.485684Z" fill="#FF4D00"/>
<path d="M17.5148 0.485684C17.202 0.172477 16.7858 0 16.343 0H10.0329C9.5902 0 9.17402 0.172406 8.86099 0.485473L0.485543 8.86092C0.172406 9.17402 0 9.59017 0 10.0327C0 10.4753 0.172477 10.8915 0.485543 11.2043L6.79553 17.5144C7.10849 17.8275 7.52463 18 7.96725 18C8.40983 18 8.82598 17.8276 9.13908 17.5145L17.5145 9.13901C17.8276 8.82598 18 8.4098 18 7.96714V1.65702C18 1.21416 17.8275 0.797977 17.5148 0.485684Z" fill="#F9560F"/>
</svg>
