<svg width="21" height="24" viewBox="0 0 21 24" fill="none" xmlns="http://www.w3.org/2000/svg">
<path d="M14.6432 0H5.62832C1.12089 0 0 1.21306 0 6.0533V19.5771C0 22.7719 1.74096 23.5286 3.85159 21.2466L3.86351 21.2346C4.84131 20.1897 6.33187 20.2737 7.1785 21.4147L8.38293 23.0362C9.3488 24.3213 10.9109 24.3213 11.8768 23.0362L13.0811 21.4147C13.9397 20.2617 15.4303 20.1777 16.4081 21.2346C18.5306 23.5166 20.2596 22.7599 20.2596 19.5651V6.0533C20.2716 1.21306 19.1507 0 14.6432 0ZM6.55843 6.00525C7.21427 6.00525 7.75093 6.54573 7.75093 7.20631C7.75093 7.86688 7.2262 8.40736 6.55843 8.40736C5.89066 8.40736 5.36599 7.86688 5.36599 7.20631C5.36599 6.54573 5.89066 6.00525 6.55843 6.00525ZM13.7131 14.4126C13.0454 14.4126 12.5207 13.8721 12.5207 13.2116C12.5207 12.551 13.0573 12.0105 13.7131 12.0105C14.369 12.0105 14.9056 12.551 14.9056 13.2116C14.9056 13.8721 14.3809 14.4126 13.7131 14.4126ZM14.7863 6.71387L6.76115 14.7969C6.58228 14.9771 6.35571 15.0612 6.12915 15.0612C5.90259 15.0612 5.67602 14.9771 5.49716 14.7969C5.15135 14.4486 5.15135 13.8721 5.49716 13.5238L13.5223 5.44076C13.8682 5.09246 14.4405 5.09246 14.7863 5.44076C15.1321 5.78907 15.1321 6.36557 14.7863 6.71387Z" fill="#F96900"/>
<path d="M14.6432 0H5.62832C1.12089 0 0 1.21306 0 6.0533V19.5771C0 22.7719 1.74096 23.5286 3.85159 21.2466L3.86351 21.2346C4.84131 20.1897 6.33187 20.2737 7.1785 21.4147L8.38293 23.0362C9.3488 24.3213 10.9109 24.3213 11.8768 23.0362L13.0811 21.4147C13.9397 20.2617 15.4303 20.1777 16.4081 21.2346C18.5306 23.5166 20.2596 22.7599 20.2596 19.5651V6.0533C20.2716 1.21306 19.1507 0 14.6432 0ZM6.55843 6.00525C7.21427 6.00525 7.75093 6.54573 7.75093 7.20631C7.75093 7.86688 7.2262 8.40736 6.55843 8.40736C5.89066 8.40736 5.36599 7.86688 5.36599 7.20631C5.36599 6.54573 5.89066 6.00525 6.55843 6.00525ZM13.7131 14.4126C13.0454 14.4126 12.5207 13.8721 12.5207 13.2116C12.5207 12.551 13.0573 12.0105 13.7131 12.0105C14.369 12.0105 14.9056 12.551 14.9056 13.2116C14.9056 13.8721 14.3809 14.4126 13.7131 14.4126ZM14.7863 6.71387L6.76115 14.7969C6.58228 14.9771 6.35571 15.0612 6.12915 15.0612C5.90259 15.0612 5.67602 14.9771 5.49716 14.7969C5.15135 14.4486 5.15135 13.8721 5.49716 13.5238L13.5223 5.44076C13.8682 5.09246 14.4405 5.09246 14.7863 5.44076C15.1321 5.78907 15.1321 6.36557 14.7863 6.71387Z" fill="#FF4D00"/>
<path d="M14.6432 0H5.62832C1.12089 0 0 1.21306 0 6.0533V19.5771C0 22.7719 1.74096 23.5286 3.85159 21.2466L3.86351 21.2346C4.84131 20.1897 6.33187 20.2737 7.1785 21.4147L8.38293 23.0362C9.3488 24.3213 10.9109 24.3213 11.8768 23.0362L13.0811 21.4147C13.9397 20.2617 15.4303 20.1777 16.4081 21.2346C18.5306 23.5166 20.2596 22.7599 20.2596 19.5651V6.0533C20.2716 1.21306 19.1507 0 14.6432 0ZM6.55843 6.00525C7.21427 6.00525 7.75093 6.54573 7.75093 7.20631C7.75093 7.86688 7.2262 8.40736 6.55843 8.40736C5.89066 8.40736 5.36599 7.86688 5.36599 7.20631C5.36599 6.54573 5.89066 6.00525 6.55843 6.00525ZM13.7131 14.4126C13.0454 14.4126 12.5207 13.8721 12.5207 13.2116C12.5207 12.551 13.0573 12.0105 13.7131 12.0105C14.369 12.0105 14.9056 12.551 14.9056 13.2116C14.9056 13.8721 14.3809 14.4126 13.7131 14.4126ZM14.7863 6.71387L6.76115 14.7969C6.58228 14.9771 6.35571 15.0612 6.12915 15.0612C5.90259 15.0612 5.67602 14.9771 5.49716 14.7969C5.15135 14.4486 5.15135 13.8721 5.49716 13.5238L13.5223 5.44076C13.8682 5.09246 14.4405 5.09246 14.7863 5.44076C15.1321 5.78907 15.1321 6.36557 14.7863 6.71387Z" fill="#F9560F"/>
</svg>
