<svg width="35" height="25" viewBox="0 0 35 25" fill="none" xmlns="http://www.w3.org/2000/svg">
<path d="M35 3.0435V21.3043C35 22.9852 33.6374 24.3478 31.9565 24.3478H3.0435C1.36261 24.3478 0 22.9852 0 21.3043V3.0435C0 1.36268 1.36261 0 3.0435 0H31.9566C33.6373 0 35 1.36268 35 3.0435Z" fill="#7F8699"/>
<path d="M35 6.84766V21.3042C35 22.985 33.6374 24.3477 31.9565 24.3477H3.0435C1.36261 24.3477 0 22.985 0 21.3042V6.84766H35Z" fill="#B5BDD0"/>
<path d="M35 6.84766V21.3042C35 22.985 33.6374 24.3477 31.9565 24.3477H3.0435C1.36261 24.3477 0 22.985 0 21.3042V6.84766H35Z" fill="#B5BDD0"/>
</svg>
