<svg width="35" height="35" viewBox="0 0 35 35" fill="none" xmlns="http://www.w3.org/2000/svg">
<path d="M23.7207 12.4414C17.5013 12.4414 12.4414 17.5013 12.4414 23.7207C12.4414 29.9401 17.5013 35 23.7207 35C29.9401 35 35 29.9401 35 23.7207C35 17.5013 29.9401 12.4414 23.7207 12.4414Z" fill="#7F8699"/>
<path d="M11.416 12.4414C17.7406 12.4414 22.6953 9.73875 22.6953 6.28906C22.6953 2.83938 17.7406 0 11.416 0C5.09141 0 0 2.83938 0 6.28906C0 9.73875 5.09141 12.4414 11.416 12.4414Z" fill="#7F8699"/>
<path d="M0 23.0742V24.745C0 28.1947 5.09141 30.8973 11.416 30.8973C11.7748 30.8973 12.1224 30.8643 12.4756 30.847C11.689 29.6103 11.1025 28.2381 10.757 26.7711C6.18345 26.6448 2.21225 25.2394 0 23.0742Z" fill="#7F8699"/>
<path d="M10.4399 24.6928C10.4164 24.3702 10.3906 24.0481 10.3906 23.7196C10.3906 22.6507 10.5307 21.6161 10.7695 20.6193C6.19028 20.4952 2.21423 19.0891 0 16.9219V18.5926C0 21.8593 4.59799 24.4266 10.4399 24.6928Z" fill="#7F8699"/>
<path d="M11.416 18.5926C11.4171 18.5926 11.418 18.5925 11.4192 18.5925C12.0954 16.9762 13.0785 15.5192 14.2993 14.2984C13.3733 14.4155 12.4163 14.4911 11.416 14.4911C6.54767 14.4911 2.31916 13.0393 0 10.7695V12.4403C0 15.89 5.09141 18.5926 11.416 18.5926Z" fill="#7F8699"/>
</svg>
