<svg version="1.2" xmlns="http://www.w3.org/2000/svg" viewBox="0 0 1000 1000" width="1000" height="1000">
	<title>error-icon-svg</title>
	<style>
		.s0 { fill: #000000 } 
	</style>
	<filter id="f0">
		<feFlood flood-color="#ff4d00" flood-opacity="1" />
		<feBlend mode="normal" in2="SourceGraphic"/>
		<feComposite in2="SourceAlpha" operator="in" />
	</filter>
	<g id="Layer" filter="url(#f0)">
		<path id="Layer" fill-rule="evenodd" class="s0" d="m871.9 991.1h-744c-43 0-81.4-21.4-102.6-57.5-19.9-33.8-20.5-74.5-1.5-108.9l370-754.1c21.4-38.7 61.2-61.7 104.9-61.7 43.6 0 83.5 23 104 60l374 757.5c18.1 32.6 17.6 73.3-2.3 107.1-21.1 36.1-59.5 57.6-102.5 57.6zm-373.1-900.3c-5.3 0-23.3 1.3-32.4 17.8l-370 754.1c-7.6 13.8-3.5 24.3-0.5 29.4 6.3 10.7 18.3 17.1 32 17.1h744c13.8 0 25.7-6.4 32-17.2 3-5.1 7.1-15.5 0.4-27.6l-374-757.6c-8.3-14.8-26.3-16-31.5-16z"/>
		<path id="Layer" class="s0" d="m496.2 663.7c-22.6 0-40.9-18.3-40.9-40.9v-245.6c0-22.6 18.3-40.9 40.9-40.9 22.6 0 40.9 18.3 40.9 40.9v245.5c0 22.7-18.3 41-40.9 41z"/>
		<path id="Layer" class="s0" d="m500.1 827.4h-7.7c-20.5 0-37.1-16.6-37.1-37.1v-7.7c0-20.5 16.6-37.1 37.1-37.1h7.7c20.5 0 37.1 16.6 37.1 37.1v7.7c-0.1 20.5-16.7 37.1-37.1 37.1z"/>
	</g>
</svg>