<svg width="26" height="28" viewBox="0 0 26 28" fill="none" xmlns="http://www.w3.org/2000/svg">
<path d="M7.71363 21.5761L22.921 17.6754C23.482 17.5316 23.8186 16.9626 23.6748 16.4016L19.8607 1.53213C19.7168 0.971141 19.1479 0.634454 18.5869 0.778346L3.37952 4.67905C1.51409 5.15753 0.388449 7.05985 0.866935 8.92528L4.68095 23.7947C5.15943 25.6602 7.06174 26.7858 8.92718 26.3073L24.1345 22.4066C24.6955 22.2627 25.0322 21.6937 24.8883 21.1328C24.7444 20.5718 24.1754 20.2351 23.6144 20.379L8.40709 24.2797C7.66362 24.4704 6.8993 24.0181 6.70859 23.2746C6.51789 22.5312 6.97016 21.7668 7.71363 21.5761ZM13.9945 16.4066C13.8538 16.6443 13.618 16.8201 13.3544 16.8877C13.0908 16.9553 12.7994 16.9148 12.5616 16.7741C12.3239 16.6334 12.1498 16.4043 12.0805 16.1339C12.0129 15.8703 12.0534 15.579 12.1941 15.3412C12.4755 14.8656 13.1514 14.6923 13.627 14.9737C13.8648 15.1144 14.0405 15.3502 14.1081 15.6138C14.1775 15.8842 14.1352 16.1688 13.9945 16.4066ZM8.80928 7.28426C9.35132 6.53293 10.2013 6.05557 11.1334 5.98218C12.419 5.88294 13.6843 6.63169 14.2161 7.80632C14.7703 9.04004 14.4914 10.4803 13.5104 11.4018C13.2732 11.6284 13.1858 12.0181 13.2864 12.4102L13.328 12.5724C13.4719 13.1333 13.1352 13.7023 12.5742 13.8462C12.0132 13.9901 11.4442 13.6534 11.3004 13.0925L11.2587 12.9302C10.9675 11.7948 11.2802 10.6268 12.0762 9.88237C12.3319 9.64388 12.5373 9.18061 12.3057 8.67094C12.1358 8.2895 11.7112 8.03824 11.3018 8.07121C10.9686 8.09186 10.692 8.24924 10.5125 8.50419C10.3329 8.75914 10.2706 9.07769 10.3469 9.37508C10.4907 9.93606 10.1541 10.5051 9.59309 10.649C9.0321 10.7929 8.46311 10.4562 8.31921 9.89517C8.08864 8.99624 8.26897 8.04235 8.80928 7.28426Z" fill="#F9560F"/>
<path d="M14.8533 3.7769L6.23584 5.9873L9.67425 19.3923L18.2918 17.1819L14.8533 3.7769Z" fill="#F9560F"/>
</svg>
