<svg width="127" height="132" viewBox="0 0 127 132" fill="none" xmlns="http://www.w3.org/2000/svg">
<path d="M47.5186 1.87175C26.5853 7.60509 10.3186 22.5384 2.98531 43.3384C-0.88136 54.2718 -1.01469 75.7384 2.71864 87.3384C15.652 127.205 63.5186 143.605 98.5853 120.405C124.452 103.205 134.185 65.3384 120.185 36.1384C115.119 25.3384 102.719 12.4051 92.7186 7.33842C78.3186 0.00508757 61.7853 -1.86158 47.5186 1.87175ZM77.7853 35.4718C83.3853 39.2051 84.3186 41.4718 84.452 49.7384V57.7384L75.7853 66.1384C69.652 72.0051 67.1186 75.4718 67.1186 77.8718C67.1186 80.9384 66.5853 81.2051 61.7853 81.2051C56.7186 81.2051 56.452 81.0718 56.452 76.8051C56.452 70.9384 59.5186 65.6051 65.7853 60.1384C72.7186 54.2718 74.3186 51.3384 72.452 47.8718C69.9186 43.0718 64.852 42.1384 56.7186 44.6718C49.652 46.9384 49.3853 46.9384 47.652 44.5384C44.3186 40.1384 45.3853 36.4051 50.1853 34.8051C57.5186 32.5384 74.052 32.8051 77.7853 35.4718ZM67.252 87.8718C68.9853 88.8051 69.7853 90.6718 69.7853 93.6051C69.7853 100.138 68.3186 101.472 61.652 100.938C55.9186 100.538 55.7853 100.405 55.3853 95.2051C54.7186 87.7384 60.3186 84.2718 67.252 87.8718Z" fill="#F9560F"/>
</svg>
