<svg width="23" height="24" viewBox="0 0 23 24" fill="none" xmlns="http://www.w3.org/2000/svg">
<g clip-path="url(#clip0_3_6)">
<path d="M20.9009 0.800801C20.3591 0.3051 19.657 0.0208595 18.923 0H3.11516C2.70434 0.00104796 2.29778 0.0831346 1.91874 0.241558C1.5397 0.399981 1.19565 0.631629 0.906275 0.923231C0.616905 1.21483 0.387907 1.56066 0.232401 1.9409C0.0768939 2.32115 -0.00206694 2.72833 4.11225e-05 3.13914V22.6707C-0.000482858 22.8711 0.0523513 23.068 0.153118 23.2413C0.253884 23.4146 0.39895 23.5579 0.573419 23.6565C0.747887 23.7552 0.94547 23.8056 1.14587 23.8026C1.34628 23.7997 1.54228 23.7434 1.71375 23.6396L4.6607 21.8699C4.70516 21.8422 4.75648 21.8275 4.80885 21.8275C4.86122 21.8275 4.91254 21.8422 4.957 21.8699L8.23227 23.8318C8.40454 23.9416 8.60457 24 8.80885 24C9.0144 23.9989 9.21604 23.9437 9.39344 23.8398L12.6847 21.8699C12.7292 21.8422 12.7805 21.8275 12.8329 21.8275C12.8852 21.8275 12.9366 21.8422 12.981 21.8699L15.912 23.6396C16.084 23.7419 16.2804 23.7958 16.4805 23.7958C16.6806 23.7958 16.8771 23.7419 17.0491 23.6396C17.2214 23.5411 17.3646 23.3989 17.4644 23.2274C17.5642 23.0559 17.6171 22.8611 17.6177 22.6627V9.16116H20.1322C20.637 9.15905 21.1206 8.95758 21.4775 8.60061C21.8345 8.24364 22.036 7.76008 22.0381 7.25526V3.13914C22.0308 2.68998 21.9253 2.24785 21.7288 1.84387C21.5324 1.43988 21.2498 1.08385 20.9009 0.800801ZM16.0161 21.8699L13.8058 20.5005C13.5114 20.3257 13.1753 20.2334 12.8329 20.2334C12.4904 20.2334 12.1543 20.3257 11.8599 20.5005L8.81686 22.3263L5.78182 20.4925C5.48387 20.3143 5.1429 20.2208 4.79572 20.2222C4.44854 20.2236 4.10834 20.3199 3.81185 20.5005L1.60164 21.8378V3.13914C1.59846 2.93837 1.63525 2.73897 1.70988 2.55256C1.78452 2.36615 1.8955 2.19646 2.03636 2.05336C2.17722 1.91026 2.34514 1.79662 2.53036 1.71907C2.71557 1.64151 2.91436 1.60158 3.11516 1.6016H16.3444C16.1329 2.00448 16.0204 2.45192 16.0161 2.90691V21.8058V21.8699Z" fill="#F9560F"/>
</g>
<defs>
<clipPath id="clip0_3_6">
<rect width="23" height="24" fill="white"/>
</clipPath>
</defs>
</svg>
