<svg width="24" height="24" viewBox="0 0 24 24" fill="none" xmlns="http://www.w3.org/2000/svg">
<path d="M23.4783 2.46218V15.2722C23.4783 16.4314 22.5386 17.3711 21.3794 17.3711H2.46218C1.30296 17.3711 0.363281 16.4314 0.363281 15.2722V2.46218C0.363281 1.30296 1.30301 0.363281 2.46218 0.363281H21.3794C22.5386 0.363281 23.4783 1.30301 23.4783 2.46218V2.46218Z" fill="#F9560F"/>
<path d="M10.9515 17.3711L10.6072 18.5832L9.27632 23.2741C9.2157 23.4874 9.01937 23.6354 8.79876 23.6354H6.91756C6.58785 23.6354 6.35028 23.3202 6.44 23.005L7.69573 18.5832L8.03997 17.3711H10.9515Z" fill="#F9560F"/>
<path d="M16.9245 23.6354H15.0433C14.8227 23.6354 14.6264 23.4875 14.5658 23.2741L13.2349 18.5832L12.8906 17.3711H15.8021L16.1464 18.5832L17.4021 23.005C17.4918 23.3202 17.2543 23.6354 16.9245 23.6354V23.6354Z" fill="#F9560F"/>
<path d="M21.3797 0H2.46261C1.10468 0 0 1.10477 0 2.46261V15.2726C0 16.6304 1.10463 17.7352 2.46261 17.7352H7.55817L6.08974 22.9054C5.93416 23.4546 6.34566 24 6.91692 24H8.79832C9.18087 24 9.52088 23.7432 9.6255 23.3752L11.2273 17.7352H12.6153L14.2171 23.3754C14.3217 23.7432 14.6617 24 15.044 24H16.9257C17.4962 24 17.9084 23.4552 17.7526 22.9055L16.2842 17.7352H21.3797C22.7377 17.7352 23.8423 16.6304 23.8423 15.2726V2.46261C23.8423 1.10477 22.7377 0 21.3797 0V0ZM8.92567 23.1765C8.90979 23.2331 8.85724 23.2727 8.79832 23.2727H6.91692C6.82872 23.2727 6.76528 23.1886 6.78957 23.1041L8.31444 17.7352H10.4711L8.92567 23.1765ZM17.0528 23.1043C17.077 23.1883 17.0139 23.2727 16.9257 23.2727H15.044C14.9853 23.2727 14.9327 23.2332 14.9169 23.1766L13.3714 17.7352H15.5279L17.0528 23.1043ZM23.1151 15.2726C23.1151 16.2295 22.3366 17.0079 21.3797 17.0079C14.5382 17.0079 9.27981 17.0079 2.46261 17.0079C1.50569 17.0079 0.727271 16.2295 0.727271 15.2726V2.46261C0.727271 1.50569 1.50569 0.727271 2.46261 0.727271H21.3797C22.3366 0.727271 23.1151 1.50569 23.1151 2.46261V15.2726Z" fill="#F9560F"/>
</svg>
