<svg width="29" height="25" viewBox="0 0 29 25" fill="none" xmlns="http://www.w3.org/2000/svg">
<g clip-path="url(#clip0_1_26286)">
<path d="M28.2326 5.33034L14.6785 0.548086C14.4969 0.483971 14.2987 0.483971 14.1171 0.548086L0.562975 5.33034C0.225978 5.44923 0.000450604 5.76755 6.74166e-07 6.12491C-0.000449256 6.48227 0.224347 6.8011 0.561063 6.92078L14.1152 11.7394C14.2066 11.7719 14.3022 11.7881 14.3978 11.7881C14.4934 11.7881 14.5889 11.7719 14.6803 11.7394L28.2344 6.92078C28.5712 6.8011 28.7959 6.48227 28.7955 6.12491C28.7951 5.76755 28.5695 5.44923 28.2326 5.33034Z" fill="#F9560F"/>
<path d="M26.7693 16.591V9.23242L25.0821 9.83224V16.591C24.5739 16.8835 24.2314 17.4316 24.2314 18.0601C24.2314 18.6885 24.5739 19.2367 25.0821 19.5292V23.6751C25.0821 24.141 25.4598 24.5187 25.9257 24.5187C26.3916 24.5187 26.7693 24.141 26.7693 23.6751V19.5292C27.2775 19.2368 27.62 18.6886 27.62 18.0602C27.62 17.4317 27.2776 16.8835 26.7693 16.591Z" fill="#F9560F"/>
<path d="M14.3977 13.4752C14.1081 13.4752 13.8229 13.426 13.5499 13.329L5.93018 10.6201V17.6339C5.93018 18.5421 6.87767 19.3102 8.74635 19.9167C10.3752 20.4453 12.3822 20.7365 14.3977 20.7365C16.4131 20.7365 18.4201 20.4453 20.0489 19.9167C21.9176 19.3102 22.8651 18.5421 22.8651 17.6339V10.6201L15.2454 13.329C14.9724 13.426 14.6872 13.4752 14.3977 13.4752Z" fill="#F9560F"/>
</g>
<defs>
<clipPath id="clip0_1_26286">
<rect width="29" height="25" fill="white"/>
</clipPath>
</defs>
</svg>
