<svg width="123" height="112" viewBox="0 0 123 112" fill="none" xmlns="http://www.w3.org/2000/svg">
<g clip-path="url(#clip0_3_42314)">
<path d="M19.2004 3.20003C11.0671 6.93336 3.60041 15.4667 1.33375 23.0667C0.26708 26.9334 0.000413035 38.5334 0.26708 59.3334C0.66708 93.3334 0.933746 94.2667 10.1337 103.2C18.6671 111.467 23.0671 112.267 64.2671 111.733C104.667 111.333 104.667 111.333 113.867 101.867C121.734 93.8667 122.667 88.6667 122.667 56.1334C122.667 39.4667 122 25.0667 121.2 22C119.334 14.9334 108 3.86669 100.534 1.60003C96.8004 0.53336 84.0004 2.6718e-05 60.5338 2.6718e-05C27.0671 2.6718e-05 25.7337 0.13336 19.2004 3.20003ZM90.0004 32V36.6667H61.3338H32.6671L32.2671 33.6C31.2004 26.5334 31.0671 26.5334 61.6004 26.9334L90.0004 27.3334V32ZM92.6671 58.6667V63.3334H73.3338C54.1338 63.3334 54.0004 63.3334 53.6004 60.2667C52.5338 53.4667 53.2004 53.2 73.6004 53.6L92.6671 54V58.6667Z" fill="#F9560F"/>
</g>
<defs>
<clipPath id="clip0_3_42314">
<rect width="122.667" height="112" fill="white"/>
</clipPath>
</defs>
</svg>
