<svg width="26" height="28" viewBox="0 0 26 28" fill="none" xmlns="http://www.w3.org/2000/svg">
<g clip-path="url(#clip0_1_26258)">
<path d="M7.76217 21.6527C8.19538 21.7679 8.64028 21.51 8.75553 21.0766L9.61599 17.8398L12.447 17.5669L13.5289 21.1246C13.6594 21.5538 14.113 21.7957 14.5419 21.6652C14.9709 21.5347 15.213 21.0811 15.0825 20.6521L14.096 17.408L14.2974 17.3886C14.7437 17.3456 15.0707 16.9488 15.0277 16.5025C14.9847 16.0561 14.5878 15.7292 14.1416 15.7721L13.614 15.823L11.6996 9.52771C11.4634 8.75074 10.3478 8.76616 10.138 9.5553L8.33661 16.3316L6.87963 16.4721C6.43328 16.5151 6.10629 16.9118 6.14931 17.3582C6.19238 17.8053 6.59009 18.1316 7.03542 18.0885L7.89144 18.006L7.18606 20.6593C7.07086 21.0927 7.3288 21.5374 7.76217 21.6527ZM10.9751 12.7271L11.9649 15.982L10.061 16.1655L10.9751 12.7271Z" fill="#F9560F"/>
<path d="M16.9002 11.4822C17.3486 11.4822 17.7121 11.1187 17.7121 10.6703V8.92618C18.6626 8.98116 18.6203 8.97959 18.6594 8.97959C19.0863 8.97959 19.4443 8.64621 19.4693 8.21452C19.4952 7.76681 19.1533 7.3829 18.7055 7.35698L17.7121 7.29952V6.30026C17.7121 5.85185 17.3486 5.48828 16.9002 5.48828C16.4517 5.48828 16.0882 5.85179 16.0882 6.30026V7.20553L15.1886 7.15347C14.741 7.12745 14.357 7.46948 14.331 7.91719C14.3051 8.36489 14.6471 8.74881 15.0948 8.77473L16.0882 8.83219V10.6703C16.0882 11.1187 16.4517 11.4822 16.9002 11.4822Z" fill="#F9560F"/>
<path d="M21.4917 3.8778C21.1846 3.55124 20.6707 3.5355 20.344 3.84273C20.0174 4.15003 20.0017 4.66386 20.3089 4.99052C24.0215 8.93706 24.7413 16.1469 21.9134 21.0626C19.4706 25.309 14.9456 26.9093 9.17212 25.5687C3.26457 24.1969 0.963369 18.0123 1.79743 12.8897C2.74257 7.08432 7.97217 0.69676 19.5991 1.80039C20.046 1.84238 20.4418 1.51518 20.4842 1.06877C20.5266 0.622358 20.199 0.226108 19.7526 0.18374C8.30949 -0.902525 1.44403 4.95427 0.194569 12.6287C-0.855171 19.0767 2.38912 25.6608 8.80482 27.1504C14.8488 28.5538 20.3346 27.0636 23.3211 21.8723C26.4659 16.4056 25.7173 8.3696 21.4917 3.8778Z" fill="#F9560F"/>
</g>
<defs>
<clipPath id="clip0_1_26258">
<rect width="26" height="28" fill="white"/>
</clipPath>
</defs>
</svg>
