<svg width="16" height="19" viewBox="0 0 16 19" fill="none" xmlns="http://www.w3.org/2000/svg">
<path d="M14.83 3.82314L9.33001 0.383139C8.93157 0.132803 8.47057 0 8.00001 0C7.52946 0 7.06845 0.132803 6.67001 0.383139L1.17001 3.82314C0.810789 4.04783 0.514817 4.36045 0.310086 4.73141C0.105355 5.10238 -0.00136645 5.51943 1.32087e-05 5.94314V12.0631C-0.00136645 12.4868 0.105355 12.9039 0.310086 13.2749C0.514817 13.6458 0.810789 13.9584 1.17001 14.1831L6.67001 17.6231C7.06845 17.8735 7.52946 18.0063 8.00001 18.0063C8.47057 18.0063 8.93157 17.8735 9.33001 17.6231L14.83 14.1831C15.1892 13.9584 15.4852 13.6458 15.6899 13.2749C15.8947 12.9039 16.0014 12.4868 16 12.0631V5.94314C16.0014 5.51943 15.8947 5.10238 15.6899 4.73141C15.4852 4.36045 15.1892 4.04783 14.83 3.82314ZM8.00001 12.0031C7.40667 12.0031 6.82665 11.8272 6.3333 11.4975C5.83996 11.1679 5.45544 10.6994 5.22837 10.1512C5.00131 9.60301 4.9419 8.99981 5.05766 8.41787C5.17341 7.83592 5.45914 7.30138 5.87869 6.88182C6.29825 6.46226 6.8328 6.17654 7.41474 6.06078C7.99669 5.94503 8.59989 6.00444 9.14806 6.2315C9.69624 6.45856 10.1648 6.84308 10.4944 7.33643C10.8241 7.82978 11 8.4098 11 9.00314C11 9.79879 10.6839 10.5619 10.1213 11.1245C9.55872 11.6871 8.79566 12.0031 8.00001 12.0031Z" fill="#FF4D00"/>
</svg>
