<svg width="24" height="25" viewBox="0 0 24 25" fill="none" xmlns="http://www.w3.org/2000/svg">
<g clip-path="url(#clip0_1_26277)">
<path d="M11.9999 0.5H11.9999C10.4361 0.5 9.16846 1.76768 9.16846 3.33145V21.6686C9.16846 23.2323 10.4361 24.5 11.9999 24.5C13.5637 24.5 14.8314 23.2323 14.8314 21.6686V3.33145C14.8314 1.76768 13.5637 0.5 11.9999 0.5Z" fill="#F9560F"/>
<path d="M5.39324 12.6312C5.39324 11.1419 4.18592 9.93457 2.69662 9.93457C1.20732 9.93457 0 11.1419 0 12.6312V21.6852C0 23.1746 1.20732 24.3819 2.69662 24.3819C4.18592 24.3819 5.39324 23.1746 5.39324 21.6852V12.6312Z" fill="#F9560F"/>
<path d="M24.0002 10.4095C24.0002 8.92021 22.7929 7.71289 21.3036 7.71289C19.8143 7.71289 18.6069 8.92021 18.6069 10.4095V21.6863C18.6069 23.1756 19.8143 24.3829 21.3036 24.3829C22.7929 24.3829 24.0002 23.1756 24.0002 21.6863V10.4095Z" fill="#F9560F"/>
</g>
<defs>
<clipPath id="clip0_1_26277">
<rect width="24" height="25" fill="white"/>
</clipPath>
</defs>
</svg>
