<svg xmlns="http://www.w3.org/2000/svg" xmlns:xlink="http://www.w3.org/1999/xlink" width="400" height="400" viewBox="0 0 400 400">
  <defs>
    <clipPath id="clip-Artboard_2">
      <rect width="400" height="400"/>
    </clipPath>
  </defs>
  <g id="Artboard_2" data-name="Artboard – 2" clip-path="url(#clip-Artboard_2)">
    <rect width="400" height="400" fill="#fff"/>
    <path id="iconUpload" d="M107.55,77.094a26.2,26.2,0,1,1-26.2-25.878A26.067,26.067,0,0,1,107.55,77.094Zm55.019-36.745v73.5a17.854,17.854,0,0,1-17.961,17.742H18.1A17.854,17.854,0,0,1,.138,113.848v-73.5A17.854,17.854,0,0,1,18.1,22.606H40.191V16.467A15.618,15.618,0,0,1,55.907.942H106.8a15.619,15.619,0,0,1,15.716,15.525V22.6h22.092A17.86,17.86,0,0,1,162.569,40.349ZM121.02,77.094c0-21.606-17.795-39.185-39.667-39.185S41.691,55.488,41.691,77.094s17.795,39.185,39.663,39.185S121.02,98.7,121.02,77.094Z" transform="translate(118.412 133.391)" fill="#7f8699"/>
  </g>
</svg>
