<svg width="18" height="19" viewBox="0 0 18 19" fill="none" xmlns="http://www.w3.org/2000/svg">
<path d="M17.6004 7.94565L15.5357 7.43789C15.4116 7.04649 15.2519 6.66695 15.0593 6.30389C15.3693 5.78786 16.0208 4.70178 16.0208 4.70178C16.1454 4.49425 16.1125 4.22851 15.9415 4.05754L14.4501 2.56614C14.2791 2.39465 14.0139 2.36171 13.8059 2.48683L12.2012 3.44832C11.8401 3.25725 11.4627 3.09915 11.0739 2.97607L10.5661 0.911375C10.5074 0.676531 10.2967 0.511719 10.0547 0.511719H7.94531C7.70326 0.511719 7.49211 0.676531 7.43393 0.91134C7.43393 0.91134 7.08219 2.35239 6.92666 2.97554C6.5121 3.10685 6.11146 3.27732 5.72984 3.48537L4.06593 2.48683C3.85787 2.36322 3.59318 2.39518 3.42169 2.56614L1.93029 4.05754C1.75932 4.22851 1.72635 4.49425 1.85098 4.70178L2.87993 6.42029C2.7141 6.74731 2.57505 7.0877 2.46435 7.43634L0.399656 7.94565C0.164813 8.00436 0 8.21498 0 8.45703V10.5664C0 10.8085 0.164812 11.0196 0.399621 11.0778L2.46484 11.5856C2.59 11.9826 2.7527 12.3683 2.94996 12.7386L2.02918 14.2732C1.90455 14.4808 1.93753 14.7465 2.1085 14.9175L3.59989 16.4089C3.77037 16.5794 4.03608 16.6118 4.24413 16.4882C4.24413 16.4882 5.27667 15.8692 5.78239 15.5664C6.14855 15.7616 6.53168 15.9227 6.9267 16.0479L7.43396 18.1121C7.49211 18.3469 7.70326 18.5117 7.94531 18.5117H10.0547C10.2967 18.5117 10.5074 18.3469 10.5661 18.1121L11.0733 16.0479C11.4797 15.9192 11.871 15.7528 12.2434 15.5509C12.763 15.8625 13.8058 16.4882 13.8058 16.4882C14.0134 16.6123 14.2791 16.5804 14.4501 16.4089L15.9415 14.9175C16.1124 14.7465 16.1454 14.4808 16.0208 14.2732L15.0727 12.6938C15.2596 12.3389 15.4146 11.9677 15.5357 11.5856L17.6003 11.0778C17.8352 11.0191 18 10.8085 18 10.5664V8.45703C18 8.21498 17.8352 8.00436 17.6004 7.94565ZM9 13.2031C6.96477 13.2031 5.30859 11.5469 5.30859 9.51172C5.30859 7.47649 6.96477 5.82031 9 5.82031C11.0352 5.82031 12.6914 7.47649 12.6914 9.51172C12.6914 11.5469 11.0352 13.2031 9 13.2031Z" fill="#FF4D00"/>
</svg>
