<svg width="23" height="24" viewBox="0 0 23 24" fill="none" xmlns="http://www.w3.org/2000/svg">
<g clip-path="url(#clip0_1_26284)">
<path d="M22.5015 7.77627C22.5015 6.79699 22.3089 5.84797 21.9321 4.95122C21.5662 4.08747 21.0436 3.31175 20.3779 2.64607C19.7122 1.98038 18.9365 1.45773 18.0727 1.09187C17.1787 0.712265 16.2269 0.522461 15.2477 0.522461C14.2684 0.522461 13.3194 0.715015 12.4226 1.09187C11.5589 1.45773 10.7832 1.98038 10.1175 2.64607C9.45177 3.31175 8.92913 4.08747 8.56327 4.95122C8.18366 5.84522 7.99386 6.79699 7.99386 7.77627C7.99386 9.00037 8.30195 10.1997 8.88787 11.267L0.20365 19.943C0.00284335 20.1438 -0.0604246 20.4491 0.0633605 20.738C0.0881175 20.7985 0.129379 20.8535 0.176143 20.9002L2.12094 22.845C2.16771 22.8918 2.22272 22.9303 2.28324 22.9578C2.57207 23.0816 2.87741 23.0211 3.07822 22.8175L4.28031 21.6154L6.01055 23.3457C6.05731 23.3924 6.11233 23.4309 6.17282 23.4585C6.46165 23.5822 6.76701 23.5217 6.96779 23.3182L8.88509 21.4009C8.93185 21.3541 8.97036 21.2991 8.99787 21.2386C9.12165 20.9498 9.06114 20.6444 8.85758 20.4436L7.15485 18.7409L11.7542 14.1388C12.8187 14.7248 14.0208 15.0328 15.2449 15.0328C16.2242 15.0328 17.1732 14.8403 18.0699 14.4634C18.9337 14.0976 19.7094 13.5749 20.3751 12.9092C21.0408 12.2436 21.5634 11.4679 21.9293 10.6041C22.3089 9.70457 22.5015 8.75555 22.5015 7.77627ZM17.7894 10.3208C17.11 11.0002 16.2049 11.3743 15.2449 11.3743C14.2849 11.3743 13.3799 11.0002 12.7005 10.3208C12.021 9.6413 11.6442 8.73629 11.6442 7.77627C11.6442 6.8135 12.0183 5.91124 12.6977 5.2318C13.3772 4.55236 14.2822 4.17825 15.2422 4.17825C16.2022 4.17825 17.1072 4.55236 17.7867 5.2318C18.4661 5.91124 18.8402 6.81625 18.8402 7.77627C18.8457 8.73629 18.4716 9.6413 17.7894 10.3208Z" fill="#F9560F"/>
</g>
<defs>
<clipPath id="clip0_1_26284">
<rect width="23" height="24" fill="white"/>
</clipPath>
</defs>
</svg>
