<svg width="24" height="24" viewBox="0 0 24 24" fill="none" xmlns="http://www.w3.org/2000/svg">
<path d="M21.1429 11.4286H19.4286V6.85714C19.4286 5.5943 18.4058 4.57141 17.1429 4.57141H12.5714V2.85713C12.5714 1.27998 11.2914 0 9.71427 0C8.13712 0 6.85714 1.27998 6.85714 2.85713V4.57141H2.28573C1.02289 4.57141 0.0114643 5.59425 0.0114643 6.85714L0.00573214 11.2H1.71429C3.41716 11.2 4.8 12.5829 4.8 14.2857C4.8 15.9886 3.41716 17.3714 1.71429 17.3714H0.00573214L0 21.7143C0 22.9772 1.02284 24 2.28573 24H6.62861V22.2857C6.62861 20.5828 8.01145 19.2 9.71432 19.2C11.4172 19.2 12.8 20.5828 12.8 22.2857V24H17.1429C18.4057 24 19.4286 22.9772 19.4286 21.7143V17.1429H21.1429C22.72 17.1429 24 15.8629 24 14.2857C24 12.7086 22.72 11.4286 21.1429 11.4286Z" fill="#F9560F"/>
</svg>
