<svg width="17" height="18" viewBox="0 0 17 18" fill="none" xmlns="http://www.w3.org/2000/svg">
<path d="M2.30013 0C1.6901 0 1.10505 0.242334 0.673691 0.673692C0.242334 1.10505 0 1.6901 0 2.30013V8.5732C0 8.85049 0.110152 9.11642 0.306223 9.31249C0.502295 9.50856 0.768225 9.61871 1.04551 9.61871H3.97295C4.13864 9.61655 4.29695 9.54976 4.41412 9.43258C4.5313 9.31541 4.59809 9.1571 4.60025 8.9914V2.30013C4.60025 1.6901 4.35792 1.10505 3.92656 0.673692C3.4952 0.242334 2.91016 0 2.30013 0ZM3.34564 8.3641H1.25461V2.30013C1.25467 2.08067 1.32434 1.86689 1.4536 1.68954C1.58285 1.51219 1.76503 1.38042 1.97393 1.31316C2.07767 1.27208 2.18858 1.25218 2.30013 1.25461C2.57741 1.25461 2.84334 1.36477 3.03942 1.56084C3.23549 1.75691 3.34564 2.02284 3.34564 2.30013V8.3641Z" fill="#FF4D00"/>
<path d="M11.5005 0H2.30001C2.1904 0.000332546 2.08273 0.0290036 1.98747 0.0832289C1.89221 0.137454 1.81259 0.215391 1.75634 0.309472C1.70287 0.405364 1.6748 0.513333 1.6748 0.623125C1.6748 0.732917 1.70287 0.840887 1.75634 0.936779L1.97381 1.31316C2.07755 1.27208 2.18846 1.25218 2.30001 1.25461C2.5773 1.25461 2.84323 1.36477 3.0393 1.56084C3.23537 1.75691 3.34552 2.02284 3.34552 2.30013V16.3351C3.34725 16.5886 3.41441 16.8373 3.54049 17.0573C3.66658 17.2772 3.84733 17.4608 4.06522 17.5904C4.28312 17.7199 4.53078 17.791 4.78422 17.7968C5.03766 17.8025 5.28828 17.7427 5.51182 17.6232L5.75438 17.481C6.08673 17.2398 6.48989 17.1163 6.90026 17.1297C7.31081 17.115 7.71438 17.2387 8.04614 17.481C8.57757 17.8288 9.20101 18.0094 9.83606 17.9995C10.4699 18.0105 11.0917 17.8266 11.6176 17.4726C11.9553 17.2461 12.3527 17.1251 12.7593 17.1251C13.1659 17.1251 13.5634 17.2461 13.901 17.4726L14.1436 17.6148C14.3641 17.7402 14.6134 17.8061 14.8671 17.8061C15.1207 17.8061 15.37 17.7402 15.5906 17.6148C15.81 17.4871 15.9919 17.304 16.1182 17.0838C16.2445 16.8636 16.3106 16.614 16.3099 16.3602V4.80936C16.3077 3.53451 15.8003 2.31252 14.8988 1.41107C13.9974 0.50962 12.7754 0.00221135 11.5005 0ZM10.2459 11.7097H6.90026C6.73389 11.7097 6.57433 11.6436 6.45669 11.526C6.33905 11.4084 6.27296 11.2488 6.27296 11.0824C6.27296 10.9161 6.33905 10.7565 6.45669 10.6389C6.57433 10.5212 6.73389 10.4551 6.90026 10.4551H10.2459C10.4123 10.4551 10.5718 10.5212 10.6895 10.6389C10.8071 10.7565 10.8732 10.9161 10.8732 11.0824C10.8732 11.2488 10.8071 11.4084 10.6895 11.526C10.5718 11.6436 10.4123 11.7097 10.2459 11.7097ZM12.7551 8.7823H6.90026C6.73389 8.7823 6.57433 8.71621 6.45669 8.59857C6.33905 8.48092 6.27296 8.32137 6.27296 8.15499C6.27296 7.98862 6.33905 7.82906 6.45669 7.71142C6.57433 7.59378 6.73389 7.52769 6.90026 7.52769H12.7551C12.9215 7.52769 13.0811 7.59378 13.1987 7.71142C13.3163 7.82906 13.3824 7.98862 13.3824 8.15499C13.3824 8.32137 13.3163 8.48092 13.1987 8.59857C13.0811 8.71621 12.9215 8.7823 12.7551 8.7823ZM12.7551 5.85487H6.90026C6.73389 5.85487 6.57433 5.78878 6.45669 5.67113C6.33905 5.55349 6.27296 5.39393 6.27296 5.22756C6.27296 5.06119 6.33905 4.90163 6.45669 4.78399C6.57433 4.66634 6.73389 4.60025 6.90026 4.60025H12.7551C12.9215 4.60025 13.0811 4.66634 13.1987 4.78399C13.3163 4.90163 13.3824 5.06119 13.3824 5.22756C13.3824 5.39393 13.3163 5.55349 13.1987 5.67113C13.0811 5.78878 12.9215 5.85487 12.7551 5.85487Z" fill="#FF4D00"/>
</svg>
