<svg width="134" height="134" viewBox="0 0 134 134" fill="none" xmlns="http://www.w3.org/2000/svg">
<g clip-path="url(#clip0_1_26309)">
<path d="M35.6001 6.13301C35.0668 6.66634 34.6668 8.53301 34.6668 10.2663C34.6668 13.1997 34.2668 13.333 24.5334 13.333C8.4001 13.333 2.0001 18.933 0.400098 34.133L-0.399902 41.333H64.0001H128.4L127.6 33.9997C126.133 19.1997 119.2 13.333 103.067 13.333C93.6001 13.333 93.4668 13.333 93.0668 9.59967C92.8001 7.46634 91.8668 5.99967 90.6668 5.99967C89.4668 5.99967 88.5334 7.46634 88.2668 9.59967L87.8668 13.333H64.0001H40.1334L39.7334 9.73301C39.3334 6.26634 37.3334 4.53301 35.6001 6.13301Z" fill="#F9560F"/>
<path d="M0.266699 83.1999C0.666699 121.733 0.800032 121.867 12.1334 127.733C18 130.8 18.2667 130.8 66.2667 130.4C120.933 130 119.067 130.4 125.067 118.667C127.867 113.067 128 111.333 128 81.0665V49.3332H63.8667H-0.133301L0.266699 83.1999ZM39.2 67.4665C42 70.2665 42 81.7332 39.2 84.5332C37.8667 85.8665 34.8 86.6665 30.6667 86.6665C26.5334 86.6665 23.4667 85.8665 22.1334 84.5332C19.3334 81.7332 19.3334 70.2665 22.1334 67.4665C24.9334 64.6665 36.4 64.6665 39.2 67.4665ZM73.8667 67.4665C75.2 68.7999 76 71.8665 76 75.9999C76 84.3999 73.7334 86.6665 65.3334 86.6665C56.9334 86.6665 54.6667 84.3999 54.6667 75.9999C54.6667 71.8665 55.4667 68.7999 56.8 67.4665C59.6 64.6665 71.0667 64.6665 73.8667 67.4665ZM108.533 67.4665C109.867 68.7999 110.667 71.8665 110.667 75.9999C110.667 84.3999 108.4 86.6665 100 86.6665C95.8667 86.6665 92.8 85.8665 91.4667 84.5332C88.6667 81.7332 88.6667 70.2665 91.4667 67.4665C94.2667 64.6665 105.733 64.6665 108.533 67.4665ZM39.2 96.7999C42 99.5999 42 111.067 39.2 113.867C36.4 116.667 24.9334 116.667 22.1334 113.867C19.3334 111.067 19.3334 99.5999 22.1334 96.7999C24.9334 93.9999 36.4 93.9999 39.2 96.7999ZM73.8667 96.7999C75.2 98.1332 76 101.2 76 105.333C76 113.733 73.7334 116 65.3334 116C56.9334 116 54.6667 113.733 54.6667 105.333C54.6667 101.2 55.4667 98.1332 56.8 96.7999C59.6 93.9999 71.0667 93.9999 73.8667 96.7999Z" fill="#F9560F"/>
</g>
<defs>
<clipPath id="clip0_1_26309">
<rect width="133.333" height="133.333" fill="white"/>
</clipPath>
</defs>
</svg>
