<svg width="20" height="24" viewBox="0 0 20 24" fill="none" xmlns="http://www.w3.org/2000/svg">
<g clip-path="url(#clip0_1_26248)">
<path d="M9.84342 0.649414C12.8706 0.649414 15.3333 3.21993 15.3333 6.37951C15.3333 9.53908 12.8706 12.1096 9.84342 12.1096C6.81629 12.1096 4.35352 9.53908 4.35352 6.37951C4.35352 3.21993 6.81623 0.649414 9.84342 0.649414Z" fill="#F9560F"/>
<path d="M0.018919 22.1274C0.197407 19.5927 1.65495 17.3633 3.83022 15.9344C5.41264 14.8948 7.37537 14.2793 9.50144 14.2793H10.0905C15.3385 14.2794 19.5926 18.0293 19.5926 22.6556C19.5926 23.2046 19.1475 23.6497 18.5985 23.6497H0.99408C0.445065 23.6497 0 23.2046 0 22.6556C0 22.4782 0.00630569 22.302 0.018919 22.1274Z" fill="#F9560F"/>
</g>
<defs>
<clipPath id="clip0_1_26248">
<rect width="20" height="24" fill="white"/>
</clipPath>
</defs>
</svg>
