<svg width="75" height="96" viewBox="0 0 75 96" fill="none" xmlns="http://www.w3.org/2000/svg">
<g clip-path="url(#clip0_7_28901)">
<path d="M3.33333 3.33333L0 6.53333V48V89.4667L3.33333 92.6667L6.53333 96H37.3333H68.1333L71.3333 92.6667L74.6667 89.4667V48V6.53333L71.3333 3.33333L68.1333 -5.00679e-06H37.3333H6.53333L3.33333 3.33333ZM41.3333 34.6667C41.3333 37.2 40.4 37.3333 26.6667 37.3333C12.9333 37.3333 12 37.2 12 34.6667C12 32.1333 12.9333 32 26.6667 32C40.4 32 41.3333 32.1333 41.3333 34.6667ZM59.3333 48C59.3333 49.7333 55.8667 50 37.4667 50.4C16.4 50.6667 11.8667 50 14 46.8C14.5333 45.7333 21.8667 45.3333 37.0667 45.6C55.8667 46 59.3333 46.2667 59.3333 48ZM58.5333 59.8667C59.4667 60.5333 59.8667 61.7333 59.4667 62.5333C58.1333 64.5333 15.2 64.5333 13.8667 62.5333C12.1333 59.6 17.0667 58.6667 36.6667 58.6667C47.7333 58.6667 57.4667 59.2 58.5333 59.8667Z" fill="#FF4D00"/>
</g>
<defs>
<clipPath id="clip0_7_28901">
<rect width="74.6667" height="96" fill="white"/>
</clipPath>
</defs>
</svg>
