<svg width="19" height="24" viewBox="0 0 19 24" fill="none" xmlns="http://www.w3.org/2000/svg">
<path d="M7.37598 14L6.65137 11.6211H3.00781L2.2832 14H0L3.52734 3.96484H6.11816L9.65918 14H7.37598ZM6.14551 9.84375C5.47559 7.68815 5.09733 6.46908 5.01074 6.18652C4.92871 5.90397 4.86947 5.68066 4.83301 5.5166C4.68262 6.09993 4.25195 7.54232 3.54102 9.84375H6.14551Z" fill="#FF4D00"/>
<path d="M18.5469 20H11.5605V18.5303L14.0693 15.9941C14.8122 15.2331 15.2975 14.7067 15.5254 14.415C15.7533 14.1188 15.9173 13.8454 16.0176 13.5947C16.1178 13.3441 16.168 13.0843 16.168 12.8154C16.168 12.4144 16.0563 12.1159 15.833 11.9199C15.6143 11.724 15.3203 11.626 14.9512 11.626C14.5638 11.626 14.1878 11.7148 13.8232 11.8926C13.4587 12.0703 13.0781 12.3232 12.6816 12.6514L11.5332 11.291C12.0254 10.8717 12.4333 10.5755 12.7568 10.4023C13.0804 10.2292 13.4336 10.097 13.8164 10.0059C14.1992 9.91016 14.6276 9.8623 15.1016 9.8623C15.7259 9.8623 16.2773 9.97624 16.7559 10.2041C17.2344 10.432 17.6058 10.751 17.8701 11.1611C18.1344 11.5713 18.2666 12.0407 18.2666 12.5693C18.2666 13.0296 18.1846 13.4626 18.0205 13.8682C17.861 14.2692 17.6104 14.6816 17.2686 15.1055C16.9313 15.5293 16.3343 16.1331 15.4775 16.917L14.1924 18.127V18.2227H18.5469V20Z" fill="#FF4D00"/>
</svg>
