<svg width="29" height="23" viewBox="0 0 29 23" fill="none" xmlns="http://www.w3.org/2000/svg">
<g clip-path="url(#clip0_1_26290)">
<path d="M8.10242 1.28516C8.11428 1.28516 8.1263 1.28521 8.13816 1.28527C9.35332 1.29517 10.4884 1.80025 11.3342 2.70759C12.1651 3.59889 12.6169 4.77473 12.6065 6.01844C12.5961 7.26215 12.1246 8.43046 11.2789 9.30821C10.4265 10.1928 9.2973 10.6785 8.09562 10.6785C8.08354 10.6785 8.07146 10.6785 8.05932 10.6784C6.84416 10.6685 5.70913 10.1634 4.86336 9.2561C4.03243 8.3648 3.5806 7.18896 3.591 5.9452C3.61263 3.36783 5.63294 1.28516 8.10242 1.28516Z" fill="#F9560F"/>
<path d="M7.88118 11.5742H8.31721C9.87179 11.5742 11.3223 12.0196 12.5448 12.7874C13.1239 13.1511 13.0885 13.9637 12.6012 14.4434C11.6695 15.3606 10.9379 16.4292 10.4266 17.6196C10.1789 18.196 9.98829 18.7891 9.85553 19.395C9.66289 20.2742 8.93611 20.9845 8.03605 20.9845H1.65226C0.739747 20.9845 0 20.2447 0 19.3322C0 15.0547 3.53546 11.5742 7.88118 11.5742Z" fill="#F9560F"/>
<path d="M20.0412 0.5C22.9367 0.5 25.2924 2.95877 25.2924 5.98098C25.2924 9.00319 22.9367 11.462 20.0412 11.462C17.1457 11.462 14.79 9.00319 14.79 5.98098C14.79 2.95877 17.1456 0.5 20.0412 0.5Z" fill="#F9560F"/>
<path d="M11.3303 20.9852C11.4893 18.4633 12.7879 16.2452 14.7259 14.8236C16.1357 13.7892 17.8843 13.1768 19.7785 13.1768H20.3033C24.9788 13.1769 28.7688 16.9079 28.7688 21.5107C28.7688 22.0569 28.326 22.4997 27.7798 22.4997H12.3025C11.7563 22.4997 11.3135 22.0569 11.3135 21.5107C11.3135 21.3342 11.3191 21.1588 11.3303 20.9852Z" fill="#F9560F"/>
</g>
<defs>
<clipPath id="clip0_1_26290">
<rect width="29" height="23" fill="white"/>
</clipPath>
</defs>
</svg>
