<svg width="19" height="29" viewBox="0 0 19 29" fill="none" xmlns="http://www.w3.org/2000/svg">
<g clip-path="url(#clip0_1_26262)">
<path d="M10.9912 1.54202C10.9912 1.62975 10.9369 1.70494 10.8576 1.73836C8.24657 2.90391 1.6585 5.78645 0.781209 6.20003C0.576507 6.29612 0.751966 6.57184 0.751966 6.57184C0.998444 6.72641 1.2491 6.84338 1.72952 7.0815C2.20159 7.31127 2.43554 7.42407 2.74468 7.51179C2.97445 7.57864 3.2251 7.62041 3.55095 7.64966C3.58437 7.64966 3.79325 7.67472 3.96871 7.66219C5.73166 7.25278 7.4946 6.84756 9.25754 6.43815C9.39123 6.40891 9.51655 6.50917 9.51655 6.64703V27.0295C9.51655 27.1256 9.44971 27.2091 9.35781 27.2342L3.96453 28.6462C3.60944 28.6713 2.36452 28.5794 1.80472 28.475C1.75041 28.4624 0 28.0572 0 27.4222V6.16243C0 6.10812 0.0208884 6.05382 0.0543091 6.01622C0.0543091 6.01622 0.0751959 5.99115 0.108617 5.97444C0.204701 5.92431 7.72437 2.15612 10.6863 0.673077C10.8283 0.602058 10.9912 0.706498 10.9912 0.865246V1.53784V1.54202Z" fill="#F96900"/>
<path d="M10.9912 1.54202C10.9912 1.62975 10.9369 1.70494 10.8576 1.73836C8.24657 2.90391 1.6585 5.78645 0.781209 6.20003C0.576507 6.29612 0.751966 6.57184 0.751966 6.57184C0.998444 6.72641 1.2491 6.84338 1.72952 7.0815C2.20159 7.31127 2.43554 7.42407 2.74468 7.51179C2.97445 7.57864 3.2251 7.62041 3.55095 7.64966C3.58437 7.64966 3.79325 7.67472 3.96871 7.66219C5.73166 7.25278 7.4946 6.84756 9.25754 6.43815C9.39123 6.40891 9.51655 6.50917 9.51655 6.64703V27.0295C9.51655 27.1256 9.44971 27.2091 9.35781 27.2342L3.96453 28.6462C3.60944 28.6713 2.36452 28.5794 1.80472 28.475C1.75041 28.4624 0 28.0572 0 27.4222V6.16243C0 6.10812 0.0208884 6.05382 0.0543091 6.01622C0.0543091 6.01622 0.0751959 5.99115 0.108617 5.97444C0.204701 5.92431 7.72437 2.15612 10.6863 0.673077C10.8283 0.602058 10.9912 0.706498 10.9912 0.865246V1.53784V1.54202Z" fill="#FF4D00"/>
<path d="M10.9912 1.54202C10.9912 1.62975 10.9369 1.70494 10.8576 1.73836C8.24657 2.90391 1.6585 5.78645 0.781209 6.20003C0.576507 6.29612 0.751966 6.57184 0.751966 6.57184C0.998444 6.72641 1.2491 6.84338 1.72952 7.0815C2.20159 7.31127 2.43554 7.42407 2.74468 7.51179C2.97445 7.57864 3.2251 7.62041 3.55095 7.64966C3.58437 7.64966 3.79325 7.67472 3.96871 7.66219C5.73166 7.25278 7.4946 6.84756 9.25754 6.43815C9.39123 6.40891 9.51655 6.50917 9.51655 6.64703V27.0295C9.51655 27.1256 9.44971 27.2091 9.35781 27.2342L3.96453 28.6462C3.60944 28.6713 2.36452 28.5794 1.80472 28.475C1.75041 28.4624 0 28.0572 0 27.4222V6.16243C0 6.10812 0.0208884 6.05382 0.0543091 6.01622C0.0543091 6.01622 0.0751959 5.99115 0.108617 5.97444C0.204701 5.92431 7.72437 2.15612 10.6863 0.673077C10.8283 0.602058 10.9912 0.706498 10.9912 0.865246V1.53784V1.54202Z" fill="#F9560F"/>
<path d="M10.9912 1.54202C10.9912 1.62975 10.9369 1.70494 10.8576 1.73836C8.24657 2.90391 1.6585 5.78645 0.781209 6.20003C0.576507 6.29612 0.751966 6.57184 0.751966 6.57184C0.998444 6.72641 1.2491 6.84338 1.72952 7.0815C2.20159 7.31127 2.43554 7.42407 2.74468 7.51179C2.97445 7.57864 3.2251 7.62041 3.55095 7.64966C3.58437 7.64966 3.79325 7.67472 3.96871 7.66219C5.73166 7.25278 7.4946 6.84756 9.25754 6.43815C9.39123 6.40891 9.51655 6.50917 9.51655 6.64703V27.0295C9.51655 27.1256 9.44971 27.2091 9.35781 27.2342L3.96453 28.6462C3.60944 28.6713 2.36452 28.5794 1.80472 28.475C1.75041 28.4624 0 28.0572 0 27.4222V6.16243C0 6.10812 0.0208884 6.05382 0.0543091 6.01622C0.0543091 6.01622 0.0751959 5.99115 0.108617 5.97444C0.204701 5.92431 7.72437 2.15612 10.6863 0.673077C10.8283 0.602058 10.9912 0.706498 10.9912 0.865246V1.53784V1.54202Z" fill="#F9560F"/>
<path d="M18.818 24.3867L14.2853 15.9773C14.2143 15.8436 14.206 15.689 14.2603 15.5511L18.6676 4.32177C18.7303 4.16302 18.5883 4.0001 18.4212 4.0377L14.4817 4.94841C14.3898 4.96512 14.2937 5.06538 14.2645 5.12805L9.53125 16.4744V16.8796L14.2561 25.6985C14.3355 25.8322 14.4357 25.8614 14.5694 25.8238L18.6844 24.7001C18.818 24.6625 18.8807 24.5162 18.8139 24.3951L18.818 24.3867Z" fill="#F96900"/>
<path d="M18.818 24.3867L14.2853 15.9773C14.2143 15.8436 14.206 15.689 14.2603 15.5511L18.6676 4.32177C18.7303 4.16302 18.5883 4.0001 18.4212 4.0377L14.4817 4.94841C14.3898 4.96512 14.2937 5.06538 14.2645 5.12805L9.53125 16.4744V16.8796L14.2561 25.6985C14.3355 25.8322 14.4357 25.8614 14.5694 25.8238L18.6844 24.7001C18.818 24.6625 18.8807 24.5162 18.8139 24.3951L18.818 24.3867Z" fill="#FF4D00"/>
<path d="M18.818 24.3867L14.2853 15.9773C14.2143 15.8436 14.206 15.689 14.2603 15.5511L18.6676 4.32177C18.7303 4.16302 18.5883 4.0001 18.4212 4.0377L14.4817 4.94841C14.3898 4.96512 14.2937 5.06538 14.2645 5.12805L9.53125 16.4744V16.8796L14.2561 25.6985C14.3355 25.8322 14.4357 25.8614 14.5694 25.8238L18.6844 24.7001C18.818 24.6625 18.8807 24.5162 18.8139 24.3951L18.818 24.3867Z" fill="#F9560F"/>
<path d="M18.818 24.3867L14.2853 15.9773C14.2143 15.8436 14.206 15.689 14.2603 15.5511L18.6676 4.32177C18.7303 4.16302 18.5883 4.0001 18.4212 4.0377L14.4817 4.94841C14.3898 4.96512 14.2937 5.06538 14.2645 5.12805L9.53125 16.4744V16.8796L14.2561 25.6985C14.3355 25.8322 14.4357 25.8614 14.5694 25.8238L18.6844 24.7001C18.818 24.6625 18.8807 24.5162 18.8139 24.3951L18.818 24.3867Z" fill="#F9560F"/>
<path d="M3.95068 6.41281C7.23009 5.0718 10.9022 3.60965 14.1899 2.23522C14.332 2.17673 14.4865 2.28117 14.4824 2.43574V2.95794C14.474 3.04985 14.4197 3.12922 14.332 3.15847C11.1027 4.25299 7.48075 5.45196 4.20551 6.50054C4.11361 6.52978 4.00917 6.49636 3.95068 6.41699V6.41281Z" fill="#122894"/>
<path d="M3.95068 6.41281C7.23009 5.0718 10.9022 3.60965 14.1899 2.23522C14.332 2.17673 14.4865 2.28117 14.4824 2.43574V2.95794C14.474 3.04985 14.4197 3.12922 14.332 3.15847C11.1027 4.25299 7.48075 5.45196 4.20551 6.50054C4.11361 6.52978 4.00917 6.49636 3.95068 6.41699V6.41281Z" fill="#F9560F"/>
<path d="M5.35889 6.79927C8.79705 5.63372 12.8911 4.2217 16.3 3.05197C16.4378 3.00602 16.584 3.11046 16.5799 3.25667V3.78723C16.5715 3.88331 16.5089 3.96686 16.4169 3.99193C13.0247 4.89847 8.92238 5.98464 5.60955 6.89118C5.51764 6.91624 5.41738 6.88282 5.36307 6.80345L5.35889 6.79927Z" fill="#122894"/>
<path d="M5.35889 6.79927C8.79705 5.63372 12.8911 4.2217 16.3 3.05197C16.4378 3.00602 16.584 3.11046 16.5799 3.25667V3.78723C16.5715 3.88331 16.5089 3.96686 16.4169 3.99193C13.0247 4.89847 8.92238 5.98464 5.60955 6.89118C5.51764 6.91624 5.41738 6.88282 5.36307 6.80345L5.35889 6.79927Z" fill="#F9560F"/>
<path d="M2.65576 6.05952C5.91846 4.58483 9.09343 3.12268 12.3311 1.66887C12.4731 1.60621 12.6319 1.71065 12.6277 1.86522V2.38742C12.6193 2.47515 12.565 2.55452 12.4815 2.58794C9.31902 3.74096 6.24431 4.87309 2.91477 6.1389C2.82287 6.17232 2.71843 6.1389 2.65576 6.0637V6.05952Z" fill="#122894"/>
<path d="M2.65576 6.05952C5.91846 4.58483 9.09343 3.12268 12.3311 1.66887C12.4731 1.60621 12.6319 1.71065 12.6277 1.86522V2.38742C12.6193 2.47515 12.565 2.55452 12.4815 2.58794C9.31902 3.74096 6.24431 4.87309 2.91477 6.1389C2.82287 6.17232 2.71843 6.1389 2.65576 6.0637V6.05952Z" fill="#F9560F"/>
</g>
<defs>
<clipPath id="clip0_1_26262">
<rect width="19" height="29" fill="white"/>
</clipPath>
</defs>
</svg>
