<svg width="28" height="22" viewBox="0 0 28 22" fill="none" xmlns="http://www.w3.org/2000/svg">
<path d="M20.1646 4C22.5336 4 24.4609 6.01169 24.4609 8.48437C24.4609 10.9571 22.5336 12.9687 20.1646 12.9687C17.7956 12.9687 15.8682 10.9571 15.8682 8.48437C15.8682 6.01169 17.7955 4 20.1646 4Z" fill="#FF4D00"/>
<path d="M13.037 20.7616C13.1671 18.6983 14.2296 16.8835 15.8152 15.7204C16.9686 14.874 18.3993 14.373 19.949 14.373H20.3784C24.2038 14.3731 27.3047 17.4257 27.3047 21.1915V21.1915C27.3047 21.6384 26.9424 22.0007 26.4955 22.0007H13.8324C13.3855 22.0007 13.0232 21.6384 13.0232 21.1915V21.1915C13.0232 21.0472 13.0278 20.9037 13.037 20.7616Z" fill="#FF4D00"/>
<path d="M13.0845 3.05766C13.2102 2.82797 13.5013 2.71335 13.7896 2.77958L15.046 3.06818L13.7704 8.62107C11.346 8.06416 8.97525 9.34336 8.48621 11.4723C7.99718 13.6011 9.57206 15.7867 11.9964 16.3436L10.7208 21.8965L9.4645 21.6079C9.17617 21.5417 8.96425 21.3115 8.95142 21.0499L8.84316 18.7519C8.40268 18.513 7.98502 18.2395 7.59577 17.9352C6.92058 18.1136 5.54189 18.4785 5.54189 18.4785C5.26436 18.5508 4.95564 18.4442 4.79353 18.2193L3.37534 16.2511C3.21277 16.0255 3.23734 15.7385 3.43567 15.5555L4.90125 14.2022C4.75524 13.7609 4.65411 13.3129 4.60043 12.8634L2.26236 11.7671C1.99663 11.642 1.85104 11.376 1.90921 11.1229L2.41606 8.91641C2.47422 8.66322 2.72115 8.48801 3.015 8.49086L5.59684 8.52308C5.81249 8.18869 6.0599 7.87069 6.33602 7.57399L5.52327 5.49484C5.42467 5.24366 5.52781 4.97471 5.77254 4.84266L7.90745 3.69073C8.15281 3.55882 8.47579 3.59782 8.69393 3.78405L10.436 5.28385C10.9406 5.17065 11.4588 5.10196 11.9842 5.07804C12.3192 4.46878 13.0845 3.05766 13.0845 3.05766Z" fill="#FF4D00"/>
</svg>
