<svg width="28" height="22" viewBox="0 0 28 22" fill="none" xmlns="http://www.w3.org/2000/svg">
<path d="M4.28317 0C4.28242 0 4.28157 0 4.28081 0C4.01599 0 3.76691 0.103233 3.57883 0.290843C3.38868 0.480527 3.28394 0.733093 3.28394 1.00197V16.0263C3.28394 16.5773 3.73392 17.0266 4.28713 17.028C6.61934 17.0336 10.5267 17.5197 13.2223 20.3405V4.61709C13.2223 4.43033 13.1746 4.25488 13.0845 4.1097C10.8721 0.546803 6.62066 0.00546803 4.28317 0Z" fill="#F96900"/>
<path d="M4.28317 0C4.28242 0 4.28157 0 4.28081 0C4.01599 0 3.76691 0.103233 3.57883 0.290843C3.38868 0.480527 3.28394 0.733093 3.28394 1.00197V16.0263C3.28394 16.5773 3.73392 17.0266 4.28713 17.028C6.61934 17.0336 10.5267 17.5197 13.2223 20.3405V4.61709C13.2223 4.43033 13.1746 4.25488 13.0845 4.1097C10.8721 0.546803 6.62066 0.00546803 4.28317 0Z" fill="#FF4D00"/>
<path d="M4.28317 0C4.28242 0 4.28157 0 4.28081 0C4.01599 0 3.76691 0.103233 3.57883 0.290843C3.38868 0.480527 3.28394 0.733093 3.28394 1.00197V16.0263C3.28394 16.5773 3.73392 17.0266 4.28713 17.028C6.61934 17.0336 10.5267 17.5197 13.2223 20.3405V4.61709C13.2223 4.43033 13.1746 4.25488 13.0845 4.1097C10.8721 0.546803 6.62066 0.00546803 4.28317 0Z" fill="#F9560F"/>
<path d="M24.7162 16.0264V1.00197C24.7162 0.733093 24.6115 0.480527 24.4213 0.290843C24.2332 0.103233 23.9839 0 23.7194 0C23.7186 0 23.7177 0 23.717 0C21.3796 0.00556231 17.1281 0.546897 14.9156 4.10979C14.8256 4.25498 14.778 4.43043 14.778 4.61719V20.3405C17.4735 17.5197 21.3809 17.0336 23.7131 17.028C24.2662 17.0266 24.7162 16.5773 24.7162 16.0264Z" fill="#F96900"/>
<path d="M24.7162 16.0264V1.00197C24.7162 0.733093 24.6115 0.480527 24.4213 0.290843C24.2332 0.103233 23.9839 0 23.7194 0C23.7186 0 23.7177 0 23.717 0C21.3796 0.00556231 17.1281 0.546897 14.9156 4.10979C14.8256 4.25498 14.778 4.43043 14.778 4.61719V20.3405C17.4735 17.5197 21.3809 17.0336 23.7131 17.028C24.2662 17.0266 24.7162 16.5773 24.7162 16.0264Z" fill="#FF4D00"/>
<path d="M24.7162 16.0264V1.00197C24.7162 0.733093 24.6115 0.480527 24.4213 0.290843C24.2332 0.103233 23.9839 0 23.7194 0C23.7186 0 23.7177 0 23.717 0C21.3796 0.00556231 17.1281 0.546897 14.9156 4.10979C14.8256 4.25498 14.778 4.43043 14.778 4.61719V20.3405C17.4735 17.5197 21.3809 17.0336 23.7131 17.028C24.2662 17.0266 24.7162 16.5773 24.7162 16.0264Z" fill="#F9560F"/>
<path d="M26.9983 3.46484H26.2718V16.0263C26.2718 17.433 25.1256 18.5801 23.7168 18.5836C21.7386 18.5883 18.4768 18.9751 16.1667 21.1615C20.162 20.1833 24.3737 20.8191 26.774 21.3661C27.0737 21.4344 27.3834 21.3639 27.6235 21.1725C27.8628 20.9816 28 20.6962 28 20.3899V4.46662C28.0001 3.91426 27.5506 3.46484 26.9983 3.46484Z" fill="#F96900"/>
<path d="M26.9983 3.46484H26.2718V16.0263C26.2718 17.433 25.1256 18.5801 23.7168 18.5836C21.7386 18.5883 18.4768 18.9751 16.1667 21.1615C20.162 20.1833 24.3737 20.8191 26.774 21.3661C27.0737 21.4344 27.3834 21.3639 27.6235 21.1725C27.8628 20.9816 28 20.6962 28 20.3899V4.46662C28.0001 3.91426 27.5506 3.46484 26.9983 3.46484Z" fill="#FF4D00"/>
<path d="M26.9983 3.46484H26.2718V16.0263C26.2718 17.433 25.1256 18.5801 23.7168 18.5836C21.7386 18.5883 18.4768 18.9751 16.1667 21.1615C20.162 20.1833 24.3737 20.8191 26.774 21.3661C27.0737 21.4344 27.3834 21.3639 27.6235 21.1725C27.8628 20.9816 28 20.6962 28 20.3899V4.46662C28.0001 3.91426 27.5506 3.46484 26.9983 3.46484Z" fill="#F9560F"/>
<path d="M1.72827 16.0263V3.46484H1.00178C0.44951 3.46484 0 3.91426 0 4.46662V20.3896C0 20.696 0.137266 20.9813 0.37654 21.1722C0.616473 21.3635 0.925888 21.4343 1.22606 21.3659C3.62634 20.8188 7.83814 20.183 11.8332 21.1612C9.52323 18.9749 6.26146 18.5882 4.28326 18.5835C2.87449 18.5801 1.72827 17.433 1.72827 16.0263Z" fill="#F96900"/>
<path d="M1.72827 16.0263V3.46484H1.00178C0.44951 3.46484 0 3.91426 0 4.46662V20.3896C0 20.696 0.137266 20.9813 0.37654 21.1722C0.616473 21.3635 0.925888 21.4343 1.22606 21.3659C3.62634 20.8188 7.83814 20.183 11.8332 21.1612C9.52323 18.9749 6.26146 18.5882 4.28326 18.5835C2.87449 18.5801 1.72827 17.433 1.72827 16.0263Z" fill="#FF4D00"/>
<path d="M1.72827 16.0263V3.46484H1.00178C0.44951 3.46484 0 3.91426 0 4.46662V20.3896C0 20.696 0.137266 20.9813 0.37654 21.1722C0.616473 21.3635 0.925888 21.4343 1.22606 21.3659C3.62634 20.8188 7.83814 20.183 11.8332 21.1612C9.52323 18.9749 6.26146 18.5882 4.28326 18.5835C2.87449 18.5801 1.72827 17.433 1.72827 16.0263Z" fill="#F9560F"/>
</svg>
