<svg id="icon-branch" xmlns="http://www.w3.org/2000/svg" width="20" height="28.889" viewBox="0 0 20 28.889">
  <path id="Path_53" data-name="Path 53" d="M2.963,7.994a4.074,4.074,0,1,1,2.222,0v8.4a4.042,4.042,0,0,1,1.347-.413l6.661-.833a1.851,1.851,0,0,0,1.622-1.839v-.871a4.074,4.074,0,1,1,2.222,0v.871a4.075,4.075,0,0,1-3.569,4.043l-6.661.833a1.851,1.851,0,0,0-1.622,1.839v.871a4.074,4.074,0,1,1-2.222,0ZM4.074,22.963a1.852,1.852,0,1,1-1.852,1.852A1.853,1.853,0,0,1,4.074,22.963Zm11.852-16.3a1.852,1.852,0,1,1-1.852,1.852A1.853,1.853,0,0,1,15.926,6.667ZM4.074,2.222A1.852,1.852,0,1,1,2.222,4.074,1.853,1.853,0,0,1,4.074,2.222Z" fill="#f96900" fill-rule="evenodd"/>
  <circle id="Ellipse_16" data-name="Ellipse 16" cx="2.5" cy="2.5" r="2.5" transform="translate(1.667 1.667)" fill="#f96900"/>
  <circle id="Ellipse_17" data-name="Ellipse 17" cx="2.5" cy="2.5" r="2.5" transform="translate(13.333 6.667)" fill="#f96900"/>
  <circle id="Ellipse_18" data-name="Ellipse 18" cx="2.5" cy="2.5" r="2.5" transform="translate(1.667 22.5)" fill="#f96900"/>
</svg>
