<svg width="24" height="25" viewBox="0 0 24 25" fill="none" xmlns="http://www.w3.org/2000/svg">
<path d="M23.3553 10.9388C23.3548 10.9383 23.3542 10.9377 23.3537 10.9372L13.5626 1.14746C13.1452 0.72998 12.5904 0.5 12.0001 0.5C11.4099 0.5 10.8551 0.729797 10.4376 1.14728L0.65158 10.9321C0.648284 10.9354 0.644988 10.9388 0.641692 10.9421C-0.215329 11.804 -0.213864 13.2024 0.645903 14.0621C1.0387 14.455 1.5575 14.6826 2.11218 14.7064C2.1347 14.7086 2.15741 14.7097 2.1803 14.7097H2.57054V21.9144C2.57054 23.34 3.73063 24.5 5.1568 24.5H8.98739C9.37561 24.5 9.69059 24.1852 9.69059 23.7969V18.1484C9.69059 17.4979 10.2198 16.9687 10.8705 16.9687H13.1298C13.7805 16.9687 14.3097 17.4979 14.3097 18.1484V23.7969C14.3097 24.1852 14.6245 24.5 15.0129 24.5H18.8435C20.2697 24.5 21.4298 23.34 21.4298 21.9144V14.7097H21.7916C22.3816 14.7097 22.9365 14.4799 23.3542 14.0624C24.2149 13.2013 24.2153 11.8005 23.3553 10.9388Z" fill="#F96900"/>
<path d="M23.3553 10.9388C23.3548 10.9383 23.3542 10.9377 23.3537 10.9372L13.5626 1.14746C13.1452 0.72998 12.5904 0.5 12.0001 0.5C11.4099 0.5 10.8551 0.729797 10.4376 1.14728L0.65158 10.9321C0.648284 10.9354 0.644988 10.9388 0.641692 10.9421C-0.215329 11.804 -0.213864 13.2024 0.645903 14.0621C1.0387 14.455 1.5575 14.6826 2.11218 14.7064C2.1347 14.7086 2.15741 14.7097 2.1803 14.7097H2.57054V21.9144C2.57054 23.34 3.73063 24.5 5.1568 24.5H8.98739C9.37561 24.5 9.69059 24.1852 9.69059 23.7969V18.1484C9.69059 17.4979 10.2198 16.9687 10.8705 16.9687H13.1298C13.7805 16.9687 14.3097 17.4979 14.3097 18.1484V23.7969C14.3097 24.1852 14.6245 24.5 15.0129 24.5H18.8435C20.2697 24.5 21.4298 23.34 21.4298 21.9144V14.7097H21.7916C22.3816 14.7097 22.9365 14.4799 23.3542 14.0624C24.2149 13.2013 24.2153 11.8005 23.3553 10.9388Z" fill="#FF4D00"/>
<path d="M23.3553 10.9388C23.3548 10.9383 23.3542 10.9377 23.3537 10.9372L13.5626 1.14746C13.1452 0.72998 12.5904 0.5 12.0001 0.5C11.4099 0.5 10.8551 0.729797 10.4376 1.14728L0.65158 10.9321C0.648284 10.9354 0.644988 10.9388 0.641692 10.9421C-0.215329 11.804 -0.213864 13.2024 0.645903 14.0621C1.0387 14.455 1.5575 14.6826 2.11218 14.7064C2.1347 14.7086 2.15741 14.7097 2.1803 14.7097H2.57054V21.9144C2.57054 23.34 3.73063 24.5 5.1568 24.5H8.98739C9.37561 24.5 9.69059 24.1852 9.69059 23.7969V18.1484C9.69059 17.4979 10.2198 16.9687 10.8705 16.9687H13.1298C13.7805 16.9687 14.3097 17.4979 14.3097 18.1484V23.7969C14.3097 24.1852 14.6245 24.5 15.0129 24.5H18.8435C20.2697 24.5 21.4298 23.34 21.4298 21.9144V14.7097H21.7916C22.3816 14.7097 22.9365 14.4799 23.3542 14.0624C24.2149 13.2013 24.2153 11.8005 23.3553 10.9388Z" fill="#F9560F"/>
</svg>
