<svg width="33" height="35" viewBox="0 0 33 35" fill="none" xmlns="http://www.w3.org/2000/svg">
<path d="M30.4805 1.16783C29.6904 0.444937 28.6665 0.0304201 27.596 0H4.54294C3.94384 0.00152827 3.35092 0.121238 2.79816 0.352272C2.2454 0.583306 1.74365 0.921125 1.32165 1.34638C0.899653 1.77163 0.565699 2.27596 0.338918 2.83048C0.112137 3.385 -0.00301429 3.97882 5.99705e-05 4.57791V33.0614C-0.000704168 33.3537 0.0763457 33.6409 0.223297 33.8936C0.370247 34.1462 0.581803 34.3552 0.836236 34.4991C1.09067 34.6429 1.37881 34.7165 1.67107 34.7122C1.96332 34.7078 2.24916 34.6258 2.49923 34.4745L6.79686 31.8936C6.86169 31.8532 6.93653 31.8318 7.01291 31.8318C7.08928 31.8318 7.16412 31.8532 7.22896 31.8936L12.0054 34.7548C12.2566 34.9149 12.5483 35 12.8462 35C13.146 34.9984 13.4401 34.9179 13.6988 34.7664L18.4986 31.8936C18.5634 31.8532 18.6382 31.8318 18.7146 31.8318C18.791 31.8318 18.8658 31.8532 18.9307 31.8936L23.2049 34.4745C23.4558 34.6235 23.7423 34.7022 24.0341 34.7022C24.3259 34.7022 24.6124 34.6235 24.8633 34.4745C25.1145 34.3308 25.3234 34.1235 25.469 33.8733C25.6145 33.6232 25.6916 33.3391 25.6924 33.0497V13.36H29.3594C30.0956 13.357 30.8008 13.0631 31.3214 12.5426C31.842 12.022 32.1358 11.3168 32.1389 10.5806V4.57791C32.1283 3.92288 31.9744 3.27812 31.6879 2.68897C31.4014 2.09983 30.9893 1.58061 30.4805 1.16783ZM23.3568 31.8936L20.1335 29.8966C19.7041 29.6416 19.214 29.5071 18.7146 29.5071C18.2152 29.5071 17.7251 29.6416 17.2957 29.8966L12.8579 32.5592L8.43183 29.8849C7.99732 29.625 7.50007 29.4887 6.99376 29.4908C6.48746 29.4928 5.99134 29.6331 5.55895 29.8966L2.33573 31.8468V4.57791C2.33108 4.28512 2.38474 3.99433 2.49358 3.72249C2.60242 3.45064 2.76426 3.20317 2.96969 2.99448C3.17511 2.7858 3.42 2.62008 3.6901 2.50697C3.9602 2.39386 4.25011 2.33563 4.54294 2.33567H23.8356C23.5272 2.9232 23.363 3.57571 23.3568 4.23924V31.8001V31.8936Z" fill="#7F8699"/>
</svg>
