<svg width="24" height="35" viewBox="0 0 24 35" fill="none" xmlns="http://www.w3.org/2000/svg">
<path d="M13.7391 1.11453C13.7391 1.22419 13.6712 1.31819 13.5719 1.35997C10.3082 2.8169 2.07313 6.42007 0.976511 6.93705C0.720634 7.05715 0.939958 7.40181 0.939958 7.40181C1.24805 7.59502 1.56137 7.74123 2.1619 8.03889C2.75199 8.3261 3.04442 8.46709 3.43085 8.57675C3.71806 8.6603 4.03138 8.71252 4.43869 8.74908C4.48047 8.74908 4.74157 8.78041 4.96089 8.76474C7.16457 8.25299 9.36825 7.74646 11.5719 7.2347C11.739 7.19815 11.8957 7.32348 11.8957 7.4958V32.9739C11.8957 33.094 11.8121 33.1984 11.6973 33.2298L4.95567 34.9948C4.5118 35.0261 2.95565 34.9112 2.2559 34.7807C2.18801 34.765 0 34.2585 0 33.4647V6.89005C0 6.82216 0.0261105 6.75428 0.0678864 6.70728C0.0678864 6.70728 0.0939949 6.67595 0.135771 6.65506C0.255877 6.5924 9.65546 1.88216 13.3578 0.0283581C13.5354 -0.0604157 13.7391 0.070134 13.7391 0.26857V1.10931V1.11453Z" fill="#F96900"/>
<path d="M13.7391 1.11453C13.7391 1.22419 13.6712 1.31819 13.5719 1.35997C10.3082 2.8169 2.07313 6.42007 0.976511 6.93705C0.720634 7.05715 0.939958 7.40181 0.939958 7.40181C1.24805 7.59502 1.56137 7.74123 2.1619 8.03889C2.75199 8.3261 3.04442 8.46709 3.43085 8.57675C3.71806 8.6603 4.03138 8.71252 4.43869 8.74908C4.48047 8.74908 4.74157 8.78041 4.96089 8.76474C7.16457 8.25299 9.36825 7.74646 11.5719 7.2347C11.739 7.19815 11.8957 7.32348 11.8957 7.4958V32.9739C11.8957 33.094 11.8121 33.1984 11.6973 33.2298L4.95567 34.9948C4.5118 35.0261 2.95565 34.9112 2.2559 34.7807C2.18801 34.765 0 34.2585 0 33.4647V6.89005C0 6.82216 0.0261105 6.75428 0.0678864 6.70728C0.0678864 6.70728 0.0939949 6.67595 0.135771 6.65506C0.255877 6.5924 9.65546 1.88216 13.3578 0.0283581C13.5354 -0.0604157 13.7391 0.070134 13.7391 0.26857V1.10931V1.11453Z" fill="#FF4D00"/>
<path d="M13.7391 1.11453C13.7391 1.22419 13.6712 1.31819 13.5719 1.35997C10.3082 2.8169 2.07313 6.42007 0.976511 6.93705C0.720634 7.05715 0.939958 7.40181 0.939958 7.40181C1.24805 7.59502 1.56137 7.74123 2.1619 8.03889C2.75199 8.3261 3.04442 8.46709 3.43085 8.57675C3.71806 8.6603 4.03138 8.71252 4.43869 8.74908C4.48047 8.74908 4.74157 8.78041 4.96089 8.76474C7.16457 8.25299 9.36825 7.74646 11.5719 7.2347C11.739 7.19815 11.8957 7.32348 11.8957 7.4958V32.9739C11.8957 33.094 11.8121 33.1984 11.6973 33.2298L4.95567 34.9948C4.5118 35.0261 2.95565 34.9112 2.2559 34.7807C2.18801 34.765 0 34.2585 0 33.4647V6.89005C0 6.82216 0.0261105 6.75428 0.0678864 6.70728C0.0678864 6.70728 0.0939949 6.67595 0.135771 6.65506C0.255877 6.5924 9.65546 1.88216 13.3578 0.0283581C13.5354 -0.0604157 13.7391 0.070134 13.7391 0.26857V1.10931V1.11453Z" fill="#F9560F"/>
<path d="M23.5227 29.6717L17.8568 19.1598C17.768 18.9927 17.7576 18.7995 17.8255 18.6272L23.3347 4.59045C23.413 4.39201 23.2355 4.18835 23.0266 4.23535L18.1022 5.37375C17.9874 5.39463 17.8673 5.51996 17.8307 5.59829L11.9142 19.7812V20.2877L17.8203 31.3114C17.9195 31.4785 18.0448 31.515 18.2119 31.468L23.3556 30.0633C23.5227 30.0163 23.601 29.8335 23.5174 29.6821L23.5227 29.6717Z" fill="#F96900"/>
<path d="M23.5227 29.6717L17.8568 19.1598C17.768 18.9927 17.7576 18.7995 17.8255 18.6272L23.3347 4.59045C23.413 4.39201 23.2355 4.18835 23.0266 4.23535L18.1022 5.37375C17.9874 5.39463 17.8673 5.51996 17.8307 5.59829L11.9142 19.7812V20.2877L17.8203 31.3114C17.9195 31.4785 18.0448 31.515 18.2119 31.468L23.3556 30.0633C23.5227 30.0163 23.601 29.8335 23.5174 29.6821L23.5227 29.6717Z" fill="#FF4D00"/>
<path d="M23.5227 29.6717L17.8568 19.1598C17.768 18.9927 17.7576 18.7995 17.8255 18.6272L23.3347 4.59045C23.413 4.39201 23.2355 4.18835 23.0266 4.23535L18.1022 5.37375C17.9874 5.39463 17.8673 5.51996 17.8307 5.59829L11.9142 19.7812V20.2877L17.8203 31.3114C17.9195 31.4785 18.0448 31.515 18.2119 31.468L23.3556 30.0633C23.5227 30.0163 23.601 29.8335 23.5174 29.6821L23.5227 29.6717Z" fill="#F9560F"/>
<path d="M4.93823 7.20376C9.03749 5.5275 13.6276 3.6998 17.7373 1.98177C17.9149 1.90866 18.1081 2.03921 18.1029 2.23242V2.88517C18.0924 3.00005 18.0245 3.09927 17.9149 3.13583C13.8783 4.50399 9.35081 6.0027 5.25677 7.31342C5.14189 7.34997 5.01134 7.3082 4.93823 7.20898V7.20376Z" fill="#122894"/>
<path d="M6.69849 7.68659C10.9962 6.22965 16.1137 4.46462 20.3749 3.00246C20.5472 2.94502 20.73 3.07557 20.7247 3.25834V3.92153C20.7143 4.04164 20.636 4.14608 20.5211 4.17741C16.2808 5.31058 11.1528 6.6683 7.01181 7.80147C6.89692 7.8328 6.7716 7.79103 6.70371 7.69181L6.69849 7.68659Z" fill="#122894"/>
<path d="M3.3197 6.76166C7.39808 4.9183 11.3668 3.0906 15.4138 1.27335C15.5914 1.19502 15.7898 1.32557 15.7846 1.51878V2.17153C15.7741 2.28119 15.7063 2.38041 15.6018 2.42219C11.6488 3.86345 7.80539 5.27861 3.64347 6.86088C3.52858 6.90265 3.39803 6.86088 3.3197 6.76688V6.76166Z" fill="#122894"/>
</svg>
