<svg width="24" height="23" viewBox="0 0 24 23" fill="none" xmlns="http://www.w3.org/2000/svg">
<path d="M17.5814 22.2674H6.4186C1.49581 22.2674 0 20.7716 0 15.8488V6.9186C0 1.99581 1.49581 0.5 6.4186 0.5H17.5814C22.5042 0.5 24 1.99581 24 6.9186V15.8488C24 20.7716 22.5042 22.2674 17.5814 22.2674ZM6.4186 2.17442C2.42233 2.17442 1.67442 2.93349 1.67442 6.9186V15.8488C1.67442 19.834 2.42233 20.593 6.4186 20.593H17.5814C21.5777 20.593 22.3256 19.834 22.3256 15.8488V6.9186C22.3256 2.93349 21.5777 2.17442 17.5814 2.17442H6.4186Z" fill="#F96900"/>
<path d="M17.5814 22.2674H6.4186C1.49581 22.2674 0 20.7716 0 15.8488V6.9186C0 1.99581 1.49581 0.5 6.4186 0.5H17.5814C22.5042 0.5 24 1.99581 24 6.9186V15.8488C24 20.7716 22.5042 22.2674 17.5814 22.2674ZM6.4186 2.17442C2.42233 2.17442 1.67442 2.93349 1.67442 6.9186V15.8488C1.67442 19.834 2.42233 20.593 6.4186 20.593H17.5814C21.5777 20.593 22.3256 19.834 22.3256 15.8488V6.9186C22.3256 2.93349 21.5777 2.17442 17.5814 2.17442H6.4186Z" fill="#FF4D00"/>
<path d="M17.5814 22.2674H6.4186C1.49581 22.2674 0 20.7716 0 15.8488V6.9186C0 1.99581 1.49581 0.5 6.4186 0.5H17.5814C22.5042 0.5 24 1.99581 24 6.9186V15.8488C24 20.7716 22.5042 22.2674 17.5814 22.2674ZM6.4186 2.17442C2.42233 2.17442 1.67442 2.93349 1.67442 6.9186V15.8488C1.67442 19.834 2.42233 20.593 6.4186 20.593H17.5814C21.5777 20.593 22.3256 19.834 22.3256 15.8488V6.9186C22.3256 2.93349 21.5777 2.17442 17.5814 2.17442H6.4186Z" fill="#F9560F"/>
<rect x="1" y="1.5" width="22" height="20" rx="5" fill="#F96900"/>
<rect x="1" y="1.5" width="22" height="20" rx="5" fill="#FF4D00"/>
<rect x="1" y="1.5" width="22" height="20" rx="5" fill="#F9560F"/>
<path d="M5.83726 7.75645H17.1628C17.6205 7.75645 18 7.37691 18 6.91924C18 6.46157 17.6205 6.08203 17.1628 6.08203L5.83726 6.08203C5.37958 6.08203 5.00005 6.46157 5.00005 6.91924C5.00005 7.37691 5.37958 7.75645 5.83726 7.75645Z" fill="white"/>
<path d="M5.83722 12.2215L12.6628 12.2213C13.1205 12.2213 13.5 11.8418 13.5 11.3841C13.5 10.9264 13.1205 10.5469 12.6628 10.5469L5.83722 10.5471C5.37955 10.5471 5.00002 10.9266 5.00002 11.3843C5.00002 11.842 5.37955 12.2215 5.83722 12.2215Z" fill="white"/>
<path d="M5.83648 16.6861H8.06904C8.52672 16.6861 8.90625 16.3066 8.90625 15.8489C8.90625 15.3913 8.52672 15.0117 8.06904 15.0117H5.83648C5.37881 15.0117 4.99927 15.3913 4.99927 15.8489C4.99927 16.3066 5.37881 16.6861 5.83648 16.6861Z" fill="white"/>
</svg>
