<svg width="16" height="16" viewBox="0 0 16 16" fill="none" xmlns="http://www.w3.org/2000/svg">
<path d="M8.26577 0.21875C4.0002 0.21875 0.531494 3.68745 0.531494 7.95302C0.531494 12.2186 4.0002 15.6873 8.26577 15.6873C12.5313 15.6873 16 12.2186 16 7.95302C16 3.68745 12.5313 0.21875 8.26577 0.21875ZM7.6939 7.24991H8.83763C9.42533 7.25674 9.98761 7.49064 10.4068 7.90264C10.8259 8.31464 11.0695 8.8728 11.0864 9.46029C11.1034 10.0478 10.8924 10.6191 10.4978 11.0546C10.1031 11.4901 9.55521 11.756 8.96888 11.7967V12.1717C8.96888 12.3582 8.8948 12.537 8.76294 12.6689C8.63108 12.8008 8.45224 12.8748 8.26577 12.8748C8.07929 12.8748 7.90045 12.8008 7.76859 12.6689C7.63673 12.537 7.56265 12.3582 7.56265 12.1717V11.8023H6.12079C5.93432 11.8023 5.75548 11.7283 5.62362 11.5964C5.49176 11.4645 5.41768 11.2857 5.41768 11.0992C5.41768 10.9128 5.49176 10.7339 5.62362 10.6021C5.75548 10.4702 5.93432 10.3961 6.12079 10.3961H8.83951C9.07024 10.3961 9.29153 10.3045 9.45468 10.1413C9.61784 9.97815 9.7095 9.75686 9.7095 9.52613C9.7095 9.29539 9.61784 9.07411 9.45468 8.91095C9.29153 8.7478 9.07024 8.65614 8.83951 8.65614H7.6939C7.1062 8.6493 6.54392 8.41541 6.12476 8.00341C5.70561 7.59141 5.46206 7.03324 5.4451 6.44575C5.42814 5.85825 5.63909 5.28697 6.03378 4.85148C6.42848 4.41599 6.97632 4.15005 7.56265 4.10932V3.73433C7.56265 3.54785 7.63673 3.36901 7.76859 3.23715C7.90045 3.10529 8.07929 3.03121 8.26577 3.03121C8.45224 3.03121 8.63108 3.10529 8.76294 3.23715C8.8948 3.36901 8.96888 3.54785 8.96888 3.73433V4.1037H10.4107C10.5972 4.1037 10.7761 4.17778 10.9079 4.30964C11.0398 4.4415 11.1139 4.62034 11.1139 4.80681C11.1139 4.99329 11.0398 5.17213 10.9079 5.30399C10.7761 5.43585 10.5972 5.50993 10.4107 5.50993H7.69202C7.46129 5.50993 7.24 5.60159 7.07685 5.76474C6.91369 5.9279 6.82204 6.14918 6.82204 6.37992C6.82204 6.61065 6.91369 6.83194 7.07685 6.99509C7.24 7.15825 7.46129 7.24991 7.69202 7.24991H7.6939Z" fill="#F96900"/>
<path d="M8.26577 0.21875C4.0002 0.21875 0.531494 3.68745 0.531494 7.95302C0.531494 12.2186 4.0002 15.6873 8.26577 15.6873C12.5313 15.6873 16 12.2186 16 7.95302C16 3.68745 12.5313 0.21875 8.26577 0.21875ZM7.6939 7.24991H8.83763C9.42533 7.25674 9.98761 7.49064 10.4068 7.90264C10.8259 8.31464 11.0695 8.8728 11.0864 9.46029C11.1034 10.0478 10.8924 10.6191 10.4978 11.0546C10.1031 11.4901 9.55521 11.756 8.96888 11.7967V12.1717C8.96888 12.3582 8.8948 12.537 8.76294 12.6689C8.63108 12.8008 8.45224 12.8748 8.26577 12.8748C8.07929 12.8748 7.90045 12.8008 7.76859 12.6689C7.63673 12.537 7.56265 12.3582 7.56265 12.1717V11.8023H6.12079C5.93432 11.8023 5.75548 11.7283 5.62362 11.5964C5.49176 11.4645 5.41768 11.2857 5.41768 11.0992C5.41768 10.9128 5.49176 10.7339 5.62362 10.6021C5.75548 10.4702 5.93432 10.3961 6.12079 10.3961H8.83951C9.07024 10.3961 9.29153 10.3045 9.45468 10.1413C9.61784 9.97815 9.7095 9.75686 9.7095 9.52613C9.7095 9.29539 9.61784 9.07411 9.45468 8.91095C9.29153 8.7478 9.07024 8.65614 8.83951 8.65614H7.6939C7.1062 8.6493 6.54392 8.41541 6.12476 8.00341C5.70561 7.59141 5.46206 7.03324 5.4451 6.44575C5.42814 5.85825 5.63909 5.28697 6.03378 4.85148C6.42848 4.41599 6.97632 4.15005 7.56265 4.10932V3.73433C7.56265 3.54785 7.63673 3.36901 7.76859 3.23715C7.90045 3.10529 8.07929 3.03121 8.26577 3.03121C8.45224 3.03121 8.63108 3.10529 8.76294 3.23715C8.8948 3.36901 8.96888 3.54785 8.96888 3.73433V4.1037H10.4107C10.5972 4.1037 10.7761 4.17778 10.9079 4.30964C11.0398 4.4415 11.1139 4.62034 11.1139 4.80681C11.1139 4.99329 11.0398 5.17213 10.9079 5.30399C10.7761 5.43585 10.5972 5.50993 10.4107 5.50993H7.69202C7.46129 5.50993 7.24 5.60159 7.07685 5.76474C6.91369 5.9279 6.82204 6.14918 6.82204 6.37992C6.82204 6.61065 6.91369 6.83194 7.07685 6.99509C7.24 7.15825 7.46129 7.24991 7.69202 7.24991H7.6939Z" fill="#FF4D00"/>
<path d="M8.26577 0.21875C4.0002 0.21875 0.531494 3.68745 0.531494 7.95302C0.531494 12.2186 4.0002 15.6873 8.26577 15.6873C12.5313 15.6873 16 12.2186 16 7.95302C16 3.68745 12.5313 0.21875 8.26577 0.21875ZM7.6939 7.24991H8.83763C9.42533 7.25674 9.98761 7.49064 10.4068 7.90264C10.8259 8.31464 11.0695 8.8728 11.0864 9.46029C11.1034 10.0478 10.8924 10.6191 10.4978 11.0546C10.1031 11.4901 9.55521 11.756 8.96888 11.7967V12.1717C8.96888 12.3582 8.8948 12.537 8.76294 12.6689C8.63108 12.8008 8.45224 12.8748 8.26577 12.8748C8.07929 12.8748 7.90045 12.8008 7.76859 12.6689C7.63673 12.537 7.56265 12.3582 7.56265 12.1717V11.8023H6.12079C5.93432 11.8023 5.75548 11.7283 5.62362 11.5964C5.49176 11.4645 5.41768 11.2857 5.41768 11.0992C5.41768 10.9128 5.49176 10.7339 5.62362 10.6021C5.75548 10.4702 5.93432 10.3961 6.12079 10.3961H8.83951C9.07024 10.3961 9.29153 10.3045 9.45468 10.1413C9.61784 9.97815 9.7095 9.75686 9.7095 9.52613C9.7095 9.29539 9.61784 9.07411 9.45468 8.91095C9.29153 8.7478 9.07024 8.65614 8.83951 8.65614H7.6939C7.1062 8.6493 6.54392 8.41541 6.12476 8.00341C5.70561 7.59141 5.46206 7.03324 5.4451 6.44575C5.42814 5.85825 5.63909 5.28697 6.03378 4.85148C6.42848 4.41599 6.97632 4.15005 7.56265 4.10932V3.73433C7.56265 3.54785 7.63673 3.36901 7.76859 3.23715C7.90045 3.10529 8.07929 3.03121 8.26577 3.03121C8.45224 3.03121 8.63108 3.10529 8.76294 3.23715C8.8948 3.36901 8.96888 3.54785 8.96888 3.73433V4.1037H10.4107C10.5972 4.1037 10.7761 4.17778 10.9079 4.30964C11.0398 4.4415 11.1139 4.62034 11.1139 4.80681C11.1139 4.99329 11.0398 5.17213 10.9079 5.30399C10.7761 5.43585 10.5972 5.50993 10.4107 5.50993H7.69202C7.46129 5.50993 7.24 5.60159 7.07685 5.76474C6.91369 5.9279 6.82204 6.14918 6.82204 6.37992C6.82204 6.61065 6.91369 6.83194 7.07685 6.99509C7.24 7.15825 7.46129 7.24991 7.69202 7.24991H7.6939Z" fill="#F9560F"/>
</svg>
