<svg width="19" height="24" viewBox="0 0 19 24" fill="none" xmlns="http://www.w3.org/2000/svg">
<g clip-path="url(#clip0_3_2)">
<path d="M17.6711 0.616599C17.3063 0.448508 16.8764 0.513918 16.578 0.782818L15.0034 2.17696C14.9606 2.21508 14.896 2.21486 14.8534 2.17651L12.711 0.260391C12.3236 -0.086797 11.737 -0.086797 11.3495 0.260391L9.20908 2.17475C9.16602 2.21321 9.10095 2.21321 9.05789 2.17475L6.91724 0.260391C6.52978 -0.0867403 5.94319 -0.0867403 5.55572 0.260391L3.41308 2.17651C3.37019 2.21486 3.30541 2.21503 3.26229 2.1769L1.68633 0.782818C1.26823 0.411009 0.627862 0.448508 0.256053 0.866609C0.0893231 1.0541 -0.00189885 1.29679 2.9974e-05 1.54765V22.4523C-0.00371421 23.0127 0.447517 23.47 1.0079 23.4738C1.25893 23.4755 1.50162 23.384 1.68917 23.2172L3.26371 21.823C3.30654 21.7849 3.37116 21.7851 3.41376 21.8235L5.55612 23.7396C5.94358 24.0868 6.53017 24.0868 6.91764 23.7396L9.05829 21.8253C9.10135 21.7868 9.16642 21.7868 9.20948 21.8253L11.3501 23.7396C11.7377 24.0866 12.3242 24.0866 12.7117 23.7396L14.8544 21.8234C14.8973 21.7851 14.9621 21.7849 15.0052 21.823L16.5812 23.2171C16.9994 23.5888 17.6397 23.551 18.0114 23.1327C18.1778 22.9454 18.2689 22.703 18.2671 22.4523V1.54765C18.2724 1.14606 18.038 0.779868 17.6711 0.616599ZM3.75596 8.14235H9.40548C9.65611 8.14235 9.85932 8.34556 9.85932 8.5962C9.85932 8.84683 9.65611 9.05004 9.40548 9.05004H3.75596C3.50532 9.05004 3.30212 8.84683 3.30212 8.5962C3.30212 8.34556 3.50532 8.14235 3.75596 8.14235ZM14.5112 15.8576H3.75596C3.50532 15.8576 3.30212 15.6544 3.30212 15.4038C3.30212 15.1532 3.50532 14.95 3.75596 14.95H14.5112C14.7618 14.95 14.965 15.1532 14.965 15.4038C14.965 15.6544 14.7618 15.8576 14.5112 15.8576ZM14.5112 12.4538H3.75596C3.50532 12.4538 3.30212 12.2506 3.30212 12C3.30212 11.7494 3.50532 11.5462 3.75596 11.5462H14.5112C14.7618 11.5462 14.965 11.7494 14.965 12C14.965 12.2506 14.7618 12.4538 14.5112 12.4538Z" fill="#F96900"/>
<path d="M17.6711 0.616599C17.3063 0.448508 16.8764 0.513918 16.578 0.782818L15.0034 2.17696C14.9606 2.21508 14.896 2.21486 14.8534 2.17651L12.711 0.260391C12.3236 -0.086797 11.737 -0.086797 11.3495 0.260391L9.20908 2.17475C9.16602 2.21321 9.10095 2.21321 9.05789 2.17475L6.91724 0.260391C6.52978 -0.0867403 5.94319 -0.0867403 5.55572 0.260391L3.41308 2.17651C3.37019 2.21486 3.30541 2.21503 3.26229 2.1769L1.68633 0.782818C1.26823 0.411009 0.627862 0.448508 0.256053 0.866609C0.0893231 1.0541 -0.00189885 1.29679 2.9974e-05 1.54765V22.4523C-0.00371421 23.0127 0.447517 23.47 1.0079 23.4738C1.25893 23.4755 1.50162 23.384 1.68917 23.2172L3.26371 21.823C3.30654 21.7849 3.37116 21.7851 3.41376 21.8235L5.55612 23.7396C5.94358 24.0868 6.53017 24.0868 6.91764 23.7396L9.05829 21.8253C9.10135 21.7868 9.16642 21.7868 9.20948 21.8253L11.3501 23.7396C11.7377 24.0866 12.3242 24.0866 12.7117 23.7396L14.8544 21.8234C14.8973 21.7851 14.9621 21.7849 15.0052 21.823L16.5812 23.2171C16.9994 23.5888 17.6397 23.551 18.0114 23.1327C18.1778 22.9454 18.2689 22.703 18.2671 22.4523V1.54765C18.2724 1.14606 18.038 0.779868 17.6711 0.616599ZM3.75596 8.14235H9.40548C9.65611 8.14235 9.85932 8.34556 9.85932 8.5962C9.85932 8.84683 9.65611 9.05004 9.40548 9.05004H3.75596C3.50532 9.05004 3.30212 8.84683 3.30212 8.5962C3.30212 8.34556 3.50532 8.14235 3.75596 8.14235ZM14.5112 15.8576H3.75596C3.50532 15.8576 3.30212 15.6544 3.30212 15.4038C3.30212 15.1532 3.50532 14.95 3.75596 14.95H14.5112C14.7618 14.95 14.965 15.1532 14.965 15.4038C14.965 15.6544 14.7618 15.8576 14.5112 15.8576ZM14.5112 12.4538H3.75596C3.50532 12.4538 3.30212 12.2506 3.30212 12C3.30212 11.7494 3.50532 11.5462 3.75596 11.5462H14.5112C14.7618 11.5462 14.965 11.7494 14.965 12C14.965 12.2506 14.7618 12.4538 14.5112 12.4538Z" fill="#FF4D00"/>
<path d="M17.6711 0.616599C17.3063 0.448508 16.8764 0.513918 16.578 0.782818L15.0034 2.17696C14.9606 2.21508 14.896 2.21486 14.8534 2.17651L12.711 0.260391C12.3236 -0.086797 11.737 -0.086797 11.3495 0.260391L9.20908 2.17475C9.16602 2.21321 9.10095 2.21321 9.05789 2.17475L6.91724 0.260391C6.52978 -0.0867403 5.94319 -0.0867403 5.55572 0.260391L3.41308 2.17651C3.37019 2.21486 3.30541 2.21503 3.26229 2.1769L1.68633 0.782818C1.26823 0.411009 0.627862 0.448508 0.256053 0.866609C0.0893231 1.0541 -0.00189885 1.29679 2.9974e-05 1.54765V22.4523C-0.00371421 23.0127 0.447517 23.47 1.0079 23.4738C1.25893 23.4755 1.50162 23.384 1.68917 23.2172L3.26371 21.823C3.30654 21.7849 3.37116 21.7851 3.41376 21.8235L5.55612 23.7396C5.94358 24.0868 6.53017 24.0868 6.91764 23.7396L9.05829 21.8253C9.10135 21.7868 9.16642 21.7868 9.20948 21.8253L11.3501 23.7396C11.7377 24.0866 12.3242 24.0866 12.7117 23.7396L14.8544 21.8234C14.8973 21.7851 14.9621 21.7849 15.0052 21.823L16.5812 23.2171C16.9994 23.5888 17.6397 23.551 18.0114 23.1327C18.1778 22.9454 18.2689 22.703 18.2671 22.4523V1.54765C18.2724 1.14606 18.038 0.779868 17.6711 0.616599ZM3.75596 8.14235H9.40548C9.65611 8.14235 9.85932 8.34556 9.85932 8.5962C9.85932 8.84683 9.65611 9.05004 9.40548 9.05004H3.75596C3.50532 9.05004 3.30212 8.84683 3.30212 8.5962C3.30212 8.34556 3.50532 8.14235 3.75596 8.14235ZM14.5112 15.8576H3.75596C3.50532 15.8576 3.30212 15.6544 3.30212 15.4038C3.30212 15.1532 3.50532 14.95 3.75596 14.95H14.5112C14.7618 14.95 14.965 15.1532 14.965 15.4038C14.965 15.6544 14.7618 15.8576 14.5112 15.8576ZM14.5112 12.4538H3.75596C3.50532 12.4538 3.30212 12.2506 3.30212 12C3.30212 11.7494 3.50532 11.5462 3.75596 11.5462H14.5112C14.7618 11.5462 14.965 11.7494 14.965 12C14.965 12.2506 14.7618 12.4538 14.5112 12.4538Z" fill="#F9560F"/>
</g>
<defs>
<clipPath id="clip0_3_2">
<rect width="19" height="24" fill="white"/>
</clipPath>
</defs>
</svg>
